<?xml version="1.0" encoding="utf-8"?>
<!-- Generator: Adobe Illustrator 23.0.6, SVG Export Plug-In . SVG Version: 6.00 Build 0)  -->
<svg version="1.1" id="Layer_1" xmlns="http://www.w3.org/2000/svg" xmlns:xlink="http://www.w3.org/1999/xlink" x="0px" y="0px"
	 viewBox="0 0 489 489" style="enable-background:new 0 0 489 489;" xml:space="preserve">
<style type="text/css">
	.st0{fill:#00426B;}
	.st1{fill:#00AEEF;}
</style>
<g>
	<g>
		<path class="st0" d="M452.5,312l-13.3-4.3l-9.2-3c2.2-6.7,3.9-13.5,5.3-20.3l9.4,2l13.6,2.8C456.9,297,454.9,304.6,452.5,312z"/>
	</g>
	<g>
		<path class="st0" d="M420.3,374.7l-11.2-8.3c7.9-10.6,14.6-21.8,20.1-33.4l12.6,6C435.8,351.4,428.7,363.3,420.3,374.7z"/>
	</g>
	<g>
		<path class="st0" d="M462.9,252.6l-13.9-0.5l-9.6-0.3l-16.2-0.6c0.1-2.1,0.1-4.2,0.1-6.4c0-27.4-6.3-54.9-18.8-80l0,0
			c-8.4-16.7-19.6-32.5-33.5-46.4l11.5-11.5c15.2,15.2,27.4,32.4,36.6,50.7c13.7,27.4,20.5,57.3,20.6,87.2h9.6
			c0-31.4-7.2-62.8-21.6-91.6l12.5-6.2c15.4,30.7,23.1,64.2,23.1,97.8C463,247.4,463,250,462.9,252.6z"/>
	</g>
	<g>
		<path class="st1" d="M460.3,279.3l-13.8-2.2l-9.5-1.5l-16-2.6c0.4-2.3,0.7-4.6,1-7l16.1,1.9l9.6,1.1l13.8,1.7
			C461.1,273.6,460.7,276.5,460.3,279.3z"/>
	</g>
	<g>
		<path class="st1" d="M398.3,364.7l-12.8-10c1-1.2,1.9-2.4,2.8-3.7c6.9-9.3,12.7-19,17.6-29.2c0.7-1.5,1.4-3.1,2.1-4.6l14.8,6.6
			c-0.7,1.7-1.5,3.3-2.3,5c-5.3,11.1-11.7,21.7-19.1,31.8C400.3,362,399.3,363.4,398.3,364.7z"/>
	</g>
	<g>
		<path class="st1" d="M187,455.8c-11.5-3.1-22.9-7.2-33.9-12.3l5.8-12.7c10.3,4.7,20.9,8.6,31.7,11.5L187,455.8z"/>
	</g>
	<g>
		<path class="st0" d="M142.3,438.2c-9.4-5-18.6-10.7-27.4-17.2l8.3-11.2c8.2,6,16.8,11.4,25.6,16.1L142.3,438.2z"/>
	</g>
	<g>
		<path class="st1" d="M105.1,413.3c-5.3-4.3-10.4-9-15.3-13.9c-3.3-3.3-6.5-6.7-9.5-10.1l10.5-9.2c2.8,3.2,5.8,6.4,8.9,9.5
			c4.6,4.6,9.4,9,14.3,13L105.1,413.3z"/>
	</g>
	<g>
		<path class="st0" d="M382.3,382.7c-1.4,1.4-2.9,2.9-4.4,4.2c-31.4,29.5-70.2,46.7-110.2,51.5c-5.8,0.7-11.6,1.1-17.4,1.3
			l-0.5-16.2c5.3-0.2,10.7-0.6,15.9-1.2c36.7-4.4,72.2-20.1,101-47.2c1.4-1.3,2.7-2.6,4-3.9c2.2-2.2,4.4-4.5,6.4-6.8l12,10.9
			C387.1,377.9,384.7,380.3,382.3,382.7z"/>
	</g>
	<g>
		<path class="st1" d="M394.1,404.1c-35.2,33.1-78.6,52.3-123.4,57.7l-1.7-13.9c41.9-5,82.6-23.1,115.6-54L394.1,404.1z"/>
	</g>
	<g>
		<path class="st1" d="M29.5,205.9l13.7,2.5l9.5,1.7c-1.3,6.9-2.1,13.9-2.6,20.8l-9.6-0.7l-13.9-1C27.1,221.5,28.1,213.7,29.5,205.9
			z"/>
	</g>
	<g>
		<path class="st1" d="M53.1,139.6l12.2,6.7c-6.4,11.5-11.5,23.5-15.5,35.8l-13.3-4.3C40.8,164.8,46.3,152,53.1,139.6z"/>
	</g>
	<g>
		<path class="st1" d="M27,266.3l13.9-1.3l9.6-0.9l16.1-1.6c0.2,2.1,0.4,4.2,0.7,6.3L27.9,274C27.6,271.4,27.3,268.8,27,266.3z"/>
	</g>
	<g>
		<path class="st0" d="M51.3,270.9l16.1-2.1c3.6,27.2,13.5,53.6,29.2,76.8l0,0c10.5,15.5,23.7,29.6,39.4,41.6l-9.9,12.9
			C109,387,94.6,371.6,83.2,354.7C66,329.3,55.2,300.5,51.3,270.9z"/>
	</g>
	<g>
		<path class="st0" d="M27.9,274l13.8-1.8c4.2,31.1,15.4,61.3,33.5,87.9l-11.5,7.8C44.4,339.5,32.4,307.2,27.9,274z"/>
	</g>
	<g>
		<path class="st0" d="M26.1,239.5l13.9,0.4l9.6,0.2l16.2,0.4c-0.1,2.3-0.1,4.7-0.1,7l-16.2,0.2l-9.6,0.1L26,248
			C26,245.2,26,242.3,26.1,239.5z"/>
	</g>
	<g>
		<path class="st0" d="M76.2,146.6l14,8.2c-0.8,1.3-1.5,2.7-2.3,4c-5.6,10.1-10.1,20.6-13.5,31.2c-0.5,1.6-1,3.2-1.5,4.8l-15.6-4.6
			c0.5-1.8,1.1-3.5,1.6-5.3c3.8-11.7,8.7-23.1,14.8-34.1C74.6,149.5,75.4,148.1,76.2,146.6z"/>
	</g>
	<g>
		<path class="st0" d="M273.7,28.4c11.8,1.6,23.6,4.1,35.2,7.7l-4.1,13.3c-10.8-3.3-21.8-5.7-32.9-7.2L273.7,28.4z"/>
	</g>
	<g>
		<path class="st1" d="M320.3,40c10,3.7,19.8,8.1,29.4,13.4L343,65.6c-8.9-4.9-18.1-9.1-27.5-12.6L320.3,40z"/>
	</g>
	<g>
		<path class="st0" d="M360.4,59.7c5.8,3.6,11.5,7.5,17,11.8c3.7,2.8,7.3,5.7,10.7,8.8L379,90.8c-3.2-2.8-6.6-5.6-10-8.2
			c-5.2-4-10.5-7.6-15.9-11L360.4,59.7z"/>
	</g>
	<g>
		<path class="st1" d="M235.8,26.7c9.2-0.4,18.5-0.2,27.8,0.6l-1.2,13.9l-0.8,9.6c3,0.2,6,0.6,9,1c10.6,1.4,21.1,3.7,31.4,6.9
			c3.4,1,6.8,2.2,10.2,3.4c8.9,3.3,17.7,7.3,26.2,12c3.2,1.8,6.5,3.6,9.6,5.7c5.2,3.2,10.2,6.7,15.2,10.5c3.3,2.5,6.5,5.1,9.6,7.8
			c3.1,2.7,6.7,6,9.6,8.9l-11.5,11.5c-2.7-2.6-5.9-5.7-8.8-8.1c-2.8-2.5-5.8-4.9-8.8-7.2c-4.5-3.5-9.2-6.7-13.9-9.6
			c-2.9-1.8-5.8-3.6-8.8-5.2c-7.8-4.3-15.8-7.9-24-11c-3.1-1.1-6.2-2.2-9.3-3.1c-9.5-2.9-19.1-5-28.8-6.3c-2.7-0.4-5.5-0.7-8.2-0.9
			c-7.6-0.7-15.1-0.8-22.7-0.5L237,50.4l-0.4-9.6L235.8,26.7z"/>
	</g>
	<g>
		<path class="st1" d="M89.7,126.6c1.2-1.6,2.5-3.2,3.8-4.8c27.2-33.4,63.4-55.5,102.4-65.6c5.6-1.5,11.3-2.7,17.1-3.6l2.6,16
			c-5.3,0.9-10.5,2-15.7,3.3C164.1,81.1,131,101.4,106,132c-1.2,1.4-2.3,2.9-3.5,4.4c-1.9,2.5-3.7,5-5.5,7.6l-13.4-9.2
			C85.6,132.1,87.6,129.3,89.7,126.6z"/>
	</g>
	<g>
		<path class="st0" d="M75.2,106.9c30.5-37.4,71-62.3,114.7-73.5l3.5,13.5C152.5,57.5,114.6,80.7,86,115.7L75.2,106.9z"/>
	</g>
	<g>
		<path class="st1" d="M224.3,462.5c-9.2-0.8-18.4-2.3-27.4-4.3l3-13.6l2.1-9.4c-2.9-0.6-5.9-1.4-8.8-2.2
			c-10.3-2.8-20.4-6.4-30.2-11c-3.2-1.5-6.5-3.1-9.6-4.7c-8.4-4.4-16.6-9.6-24.4-15.3c-3-2.2-5.9-4.5-8.8-6.9
			c-4.7-3.9-9.3-8-13.6-12.4c-2.9-2.9-5.7-5.9-8.5-9c-2.7-3.1-5.4-6.3-7.9-9.5l12.8-9.9c2.3,2.9,4.7,5.9,7.2,8.7
			c2.5,2.8,5.1,5.6,7.7,8.3c4,4,8.2,7.8,12.5,11.4c2.6,2.2,5.3,4.3,8.1,6.3c7.2,5.3,14.7,10,22.4,14.1c2.9,1.5,5.9,3,8.8,4.3
			c9,4.1,18.3,7.5,27.7,10c2.7,0.7,5.4,1.4,8.1,2c7.4,1.6,14.9,2.8,22.4,3.5l-1.5,16.1l-0.9,9.6L224.3,462.5z"/>
	</g>
	<g>
		<path d="M116.9,230.3l-20.5-2.7l0.5-3.8l20.5,2.7L116.9,230.3z"/>
		<path d="M101.2,203.2l1-3.8l20.1,5.2l-0.6,2.4l0,0l-16.3,7l13.5,3.5l-1,3.8l-20.1-5.2l0.8-3.1l15-6.6L101.2,203.2z"/>
		<path d="M123.9,200.4l-19-8.3l6-13.6l3.4,1.5l-4.4,10.1l5.2,2.3l4.2-9.5l3.3,1.4l-4.2,9.5l7,3.1L123.9,200.4z"/>
		<path d="M134.4,160.2c4.4,3,7.1,8.7,3.1,14.8s-10.2,6-14.8,3c-4.5-3-7.2-8.9-3.2-14.9C123.3,157.2,129.9,157.2,134.4,160.2z
			 M124.8,174.8c2.9,1.8,6.9,2.3,9.6-1.8c2.7-4.1,0.6-7.6-2.2-9.6c-2.9-2-7.2-2.5-9.9,1.6C119.7,169.2,121.9,173,124.8,174.8z"/>
		<path d="M158.1,149.6l-3.2,3.4l-9.2-0.4l-2.6,2.7l5,4.8l-2.7,2.8l-15.1-14.3c2.3-2.4,4.5-4.8,6.8-7.1c3.4-3.5,7.5-3.2,10.1-0.7
			c2.1,2,3.3,4.9,1.1,8.3l9.5,0.3L158.1,149.6z M135.7,148.3l4.8,4.6l4.1-4.3c1.7-1.8,1.2-3.7,0-4.9c-1.2-1.1-3.2-1.5-4.9,0.3
			L135.7,148.3z"/>
		<path d="M165.6,125.1l-0.2,11.2l-0.6,0.5l-10.6-3.4l8.8,12.2l-3.2,2.3l-12.2-16.8l3.6-2.6l10.5,3.4v-11l3.6-2.6l12.2,16.8
			l-3.2,2.3L165.6,125.1z"/>
		<path d="M193.2,123l-9.8,4.6v4.3l-3.8,1.8l-0.3-22.7l3.9-1.8l17.1,14.9l-3.9,1.8L193.2,123z M183.1,114l0.2,9.6l7-3.2L183.1,114z"
			/>
		<path d="M200.1,106.4l-6.3,1.9l-1-3.4c5.7-1.7,10.6-3.2,16.3-4.9l1,3.4l-6.3,1.9l5,16.4l-3.7,1.1L200.1,106.4z"/>
		<path d="M218.7,119.3l-3.8-20.4l3.8-0.7l3.8,20.4L218.7,119.3z"/>
		<path d="M247.6,106.1c0.2,5.4-2.8,10.9-10.1,11.3s-10.9-4.7-11.2-10.1s2.9-11.1,10.1-11.5C243.5,95.4,247.4,100.7,247.6,106.1z
			 M230.2,107.1c0.3,3.4,2.3,6.9,7.2,6.7c4.9-0.3,6.5-4,6.4-7.4c-0.1-3.5-2.3-7.3-7.2-7C231.7,99.6,229.9,103.6,230.2,107.1z"/>
		<path d="M268.1,97.8l3.9,0.5l-2.7,20.6l-2.4-0.3l0,0l-9-15.3l-1.8,13.9l-3.9-0.5l2.7-20.5l3.1,0.4l8.4,14.1L268.1,97.8z"/>
		<path d="M298.4,111.4c-0.3-1.4-1.7-3.1-3.8-3.9c-2.7-1-4.4-0.3-5,1.1c-0.6,1.7,1.2,2.9,3.4,4c3.9,2,7.3,4.4,5.5,9.1
			c-1.6,4.3-6.1,4.8-10.4,3.2c-4-1.5-6.6-3.8-6.7-7.9l3.6-0.5c0.1,2.5,2,4.2,4.3,5.1s4.8,0.8,5.5-1.3c0.7-1.8-1-3.3-3.4-4.5
			c-3.8-1.9-7.1-4.3-5.5-8.7c1.5-4,6-4.2,9.6-2.9c3,1.1,5.8,3.1,6.2,6.7L298.4,111.4z"/>
		<path d="M313.6,136.7l-13.5-7.6c3.4-6,6.7-12.1,10.1-18.1l13.5,7.6l-1.8,3.3l-10.2-5.7l-2.3,4.2l9.8,5.5l-1.8,3.2l-9.8-5.5
			l-2.3,4.1l10.2,5.7L313.6,136.7z"/>
		<path d="M333,148.1c-3,0.3-5.7-0.6-8.1-2.4c-6.1-4.7-5.4-10.9-2.1-15.2s9.5-6.5,15.4-1.8c2.2,1.7,3.7,4.2,4,7.2l-3.6,0.4
			c-0.3-1.9-1.3-3.5-2.7-4.6c-3.9-3.1-7.9-1.5-10.1,1.3c-2.1,2.7-2.7,6.8,1.3,9.9c1.4,1.1,3.5,1.8,5.4,1.6L333,148.1z"/>
		<path d="M361,151.8l-8.8,7.9c-4.6,4.1-9.4,3.4-12.9-0.5c-3.3-3.7-3.9-8.9,0.7-13l8.8-7.9l2.6,2.9l-8.8,7.9
			c-2.8,2.5-2.8,5.4-0.7,7.8c2.2,2.4,5,2.3,7.6-0.1l8.8-7.9L361,151.8z"/>
		<path d="M358.3,185l-2.5-3.9l2.6-8.8l-2-3.2l-5.9,3.7l-2.1-3.3l17.6-11c1.7,2.8,3.5,5.6,5.2,8.4c2.6,4.1,1.2,8.1-1.8,10
			c-2.4,1.5-5.5,1.9-8.3-1l-2.6,9.1H358.3z M365.1,163.7l-5.6,3.5l3.2,5c1.3,2.1,3.3,2.1,4.7,1.2c1.4-0.9,2.2-2.7,0.9-4.8
			L365.1,163.7z"/>
		<path d="M359.2,187.7l18.7-8.9l1.7,3.5l-18.7,8.9L359.2,187.7z"/>
		<path d="M381.4,196l-2.1-6.2l3.4-1.1c1.9,5.7,3.6,10.5,5.5,16.2l-3.4,1.1l-2.1-6.2l-16.3,5.5l-1.3-3.7L381.4,196z"/>
		<path d="M383.1,222.5l9.3,4.1l0.8,4.6H393l-13.2-6.2l-8.4,1.4l-0.6-3.9l8.4-1.4l10.6-9.8h0.2l0.7,4.6L383.1,222.5z"/>
	</g>
	<g>
		<path d="M114.5,287c-3.8,1-8.2-0.5-9.5-5.4s1.8-8.4,5.6-9.4c3.9-1,8.2,0.5,9.5,5.4C121.5,282.5,118.5,286,114.5,287z M111,273.3
			c-3.3,0.9-6,3.8-4.9,8s4.9,5.4,8.2,4.6c3.4-0.9,5.9-3.8,4.8-8C118,273.7,114.4,272.4,111,273.3z"/>
		<path d="M127.7,299.6l-8.7,3.6c-7.3,3-11.8-7.7-4.4-10.7l8.7-3.6l0.4,1.1l-8.7,3.6c-6,2.5-2.4,11.1,3.6,8.6l8.7-3.6L127.7,299.6z"
			/>
		<path d="M122.6,321.8l-0.8-1.3l2.4-7.4l-2-3.6l-5,2.8l-0.6-1l13.2-7.5c1.1,1.9,2.2,3.9,3.3,5.8c1.6,2.9,0.4,5.5-1.6,6.7
			c-2.1,1.2-4.8,0.9-6.4-2L122.6,321.8z M123.2,309l2.6,4.7c1.3,2.3,3.2,2.6,5,1.5c1.6-0.9,2.6-2.8,1.3-5l-2.7-4.8L123.2,309z"/>
		<path d="M146.3,332.9c0.7-2-0.3-3.5-1.4-4.8c-1.1-1.4-3.4-3.1-5.3-1.5c-1.5,1.2-0.5,3.1,0.8,5.4c1.4,2.6,3,5.3,0.5,7.4
			c-2.6,2.2-5.5,0.1-7.1-1.9c-1.5-1.8-2.5-4.5-1.5-6.9l1.1,0.5c-0.8,1.9,0,4.3,1.2,5.7c1.2,1.4,3.5,3.4,5.6,1.6
			c1.8-1.4,0.5-3.7-0.7-5.9c-1.4-2.5-2.7-5-0.6-6.8c2.4-2.1,5.3-0.2,6.9,1.7c1.4,1.7,2.3,3.3,1.6,5.9L146.3,332.9z"/>
		<path d="M149.8,353.5l4.7-5l-7.1-6.6l-4.7,5l-0.9-0.8l10.3-11.1l0.9,0.8l-4.9,5.3l7.1,6.6l4.9-5.3l0.9,0.8l-10.3,11.1L149.8,353.5
			z"/>
		<path d="M165.7,365.6l0.8-4l-7.4-5.2l-3.5,2.1l-1-0.7l14.3-8.4l1,0.7l-3.3,16.3L165.7,365.6z M166.7,360.4l2-9.9l-8.7,5.1
			L166.7,360.4z"/>
		<path d="M181.9,374.7l-1.4-0.7l-1.9-7.5l-3.6-2l-2.7,5.1l-1-0.6l7.2-13.3c2,1.1,3.9,2.1,5.9,3.1c2.9,1.6,3.2,4.4,2.2,6.5
			c-1.1,2.2-3.6,3.3-6.5,1.8L181.9,374.7z M175.5,363.5l4.7,2.5c2.3,1.2,4.1,0.5,5.1-1.4c0.9-1.6,0.7-3.7-1.6-4.9l-4.8-2.6
			L175.5,363.5z"/>
		<path d="M190.7,369.7l8.3,3.3l-0.4,1l-8.3-3.3l-2.2,5.6l8.9,3.5l-0.4,1l-10-3.9l5.6-14.1l9.7,3.8l-0.4,1l-8.7-3.4L190.7,369.7z"/>
		<path d="M216.5,378.4c-0.9,3.8-4.2,6.9-9.4,5.6c-1.7-0.4-3.3-0.9-5-1.3l3.8-14.7c1.7,0.4,3.3,0.9,5,1.3
			C215.9,370.6,217.3,374.7,216.5,378.4z M206.8,369.3l-3.2,12.5l3.8,1c4.4,1.1,7.2-1.6,8-4.8c0.7-3.1-0.5-6.6-4.7-7.7L206.8,369.3z
			"/>
		<path d="M241.2,389l-1.5-0.1l-4.8-6.1l-4.1-0.3l-0.4,5.7l-1.2-0.1l1-15.1c2.2,0.2,4.4,0.3,6.6,0.5c3.3,0.2,4.8,2.7,4.6,5
			c-0.1,2.5-1.9,4.5-5.2,4.3L241.2,389z M230.7,381.4l5.4,0.4c2.6,0.2,3.9-1.2,4.1-3.3c0.1-1.8-0.9-3.7-3.4-3.9l-5.5-0.4
			L230.7,381.4z"/>
		<path d="M247.1,380.7l8.8-0.5l0.1,1.1l-8.8,0.5l0.3,6l9.5-0.5l0.1,1.1l-10.7,0.6l-0.8-15.1l10.4-0.6l0.1,1.1l-9.3,0.5L247.1,380.7
			z"/>
		<path d="M271,373.9c-1.4-1.6-3.2-1.5-4.9-1.2c-1.7,0.3-4.4,1.4-4,3.8c0.3,1.9,2.5,2,5.1,2c3,0.1,6,0,6.6,3.3
			c0.6,3.4-2.7,4.8-5.2,5.2c-2.3,0.4-5.1-0.1-6.7-2.2l0.9-0.7c1.2,1.7,3.7,2.1,5.6,1.8c1.8-0.3,4.7-1.3,4.2-4
			c-0.4-2.2-2.9-2.3-5.5-2.3c-2.8-0.1-5.7-0.1-6.2-2.9c-0.6-3.1,2.5-4.7,4.9-5.1c2.1-0.4,4-0.4,5.9,1.6L271,373.9z"/>
		<path d="M279.7,379l1.5,5l-1.1,0.3l-4.4-14.5c2.1-0.6,4.2-1.3,6.4-1.9c6.3-1.9,9.1,7.6,2.9,9.5L279.7,379z M277.2,370.6l2.2,7.4
			l5.2-1.6c4.8-1.5,2.6-8.9-2.2-7.4L277.2,370.6z"/>
		<path d="M307.1,366.1c1.6,3.6,0.9,8.2-3.7,10.3c-4.6,2.1-8.5-0.4-10.2-4c-1.7-3.7-0.9-8.1,3.7-10.2
			C301.6,360,305.4,362.4,307.1,366.1z M294.2,371.9c1.4,3.1,4.8,5.2,8.7,3.5c3.9-1.8,4.6-5.7,3.2-8.8c-1.4-3.2-4.7-5.2-8.7-3.4
			C293.4,364.9,292.7,368.6,294.2,371.9z"/>
		<path d="M308,356.9l15.3,5.2l-6.7-10.6l1-0.6l8.1,12.8l-0.4,0.2l-15.3-5.1l6.7,10.6l-1,0.6l-8.1-12.8L308,356.9z"/>
		<path d="M331.2,343.9c-2-0.7-3.5,0.3-4.8,1.3c-1.4,1.1-3.1,3.4-1.6,5.3c1.2,1.5,3.1,0.5,5.4-0.7c2.6-1.4,5.3-2.9,7.3-0.4
			c2.2,2.6,0,5.5-1.9,7.1c-1.8,1.5-4.5,2.5-6.9,1.4l0.5-1.1c1.9,0.8,4.3,0,5.7-1.2c1.4-1.2,3.4-3.5,1.7-5.5
			c-1.4-1.8-3.7-0.6-5.9,0.7c-2.5,1.3-5,2.7-6.8,0.6c-2.1-2.4-0.1-5.3,1.8-6.9c1.7-1.4,3.3-2.3,5.9-1.5L331.2,343.9z"/>
		<path d="M343.9,348.6l-10.6-10.8l0.8-0.8l10.6,10.8L343.9,348.6z"/>
		<path d="M348.2,327.7c1.2,1,1.5,2.5,0.9,4c1.6-1.1,3.5-0.9,4.8,0.2c2.4,2,1.1,4.8-0.6,6.7c-1.4,1.7-2.6,3-4,4.7l-11.5-9.8
			c1.4-1.7,2.6-3,4-4.7C343.5,326.8,346,325.8,348.2,327.7z M343.8,337l3.4-3.9c1.2-1.4,2-3.2,0.4-4.6c-1.7-1.4-3.7-0.5-4.9,0.9
			l-3.3,3.8L343.8,337z M349.2,341.7l3.3-3.8c1.2-1.4,2.5-3.6,0.7-5.2c-1.8-1.5-3.8-0.4-5.2,1.1c-1.2,1.4-2.2,2.6-3.4,3.9
			L349.2,341.7z"/>
		<path d="M360.3,329.7l-12.3-8.8l0.7-0.9l12.3,8.8L360.3,329.7z"/>
		<path d="M352.2,314.8l12,7.3l4.4-7.3l0.9,0.6l-5,8.3l-12.9-7.8L352.2,314.8z"/>
		<path d="M371.9,310.8l-13.5-6.8l0.5-1l13.5,6.8L371.9,310.8z"/>
		<path d="M364.1,294.2l-2,5.1l-1-0.4l4.5-11.2l1,0.4l-2,5.1l13.1,5.2l-0.4,1.1L364.1,294.2z"/>
		<path d="M377,281.2l-10.3,3.4l0,0l0.4-1.3l9-2.9l-6.4-7l0.3-1.3l0,0l7.2,8l5.8,1.5l-0.3,1.1L377,281.2z"/>
	</g>
	<g>
		<g>
			<g>
				<g>
					<path class="st1" d="M247.8,204.2c0,0.1-0.1,0.2-0.1,0.3l41.1,80.7l2.8,5.5c-11.5,18.9-27.3,30.9-47.1,36.8
						c-19.3-5.7-34.8-17.3-46.2-35.2c0.1-0.1,0.1-0.2,0.2-0.3l3.9-7.2l8.1-15l18.1-33.6l20.4,39.3c3.2,6.2,10.8,8.5,16.9,5.3
						s8.5-10.8,5.3-16.9l-31.5-60.5c-2.1-4.1-6.4-6.7-11-6.7h-0.1c-4.6,0-8.9,2.6-11,6.7l-32.3,60.3c-6.6-20.5-10.1-46-10.3-76.8
						l60.1-7.7l9.5-1.2l69.6,9c-0.2,31.2-3.8,56.9-10.6,77.5L271.3,201c-3.1-6.2-10.6-8.6-16.8-5.4
						C250.8,197.3,248.6,200.6,247.8,204.2z"/>
				</g>
				<g>
					<path class="st0" d="M291.7,290.6c-11.5,18.9-27.3,30.9-47.1,36.8c-19.3-5.7-34.8-17.3-46.2-35.2c0.1-0.1,0.1-0.2,0.2-0.3
						l3.9-7.2l8.1-15l18.1-33.6l20.4,39.3c3.2,6.2,10.8,8.5,16.9,5.3s8.5-10.8,5.3-16.9l-31.5-60.5c-2.1-4.1-6.4-6.7-11-6.7h-0.1
						c-4.6,0-8.9,2.6-11,6.7l-32.3,60.3c-6.6-20.5-10.1-46-10.3-76.8l60.1-7.7h0.1l12.7,25l41.1,81L291.7,290.6z"/>
				</g>
			</g>
		</g>
		<g>
			<g>
				<path class="st1" d="M244.5,167.4l-79.4,10.2v0.9c0,42.7,6.8,100.9,39.5,135.9c19.7,21.1,39.8,23.6,39.9,23.6h0.1
					c0.8-0.1,20.2-2.6,39.8-23.6c32.6-34.9,39.5-93.2,39.5-135.9v-0.9L244.5,167.4z M283.1,312.8c-18.4,19.7-36.9,22.9-38.6,23.1
					c-1.7-0.2-20.2-3.4-38.6-23.1c-31.9-34.2-38.7-91.3-38.8-133.5l77.4-10l77.4,10C321.8,221.5,314.9,278.6,283.1,312.8z"/>
			</g>
		</g>
		<g>
			<g>
				<path class="st1" d="M247.4,163.3h-0.1l-1-0.1l0,0l-0.9-0.1c-0.1,0-0.2,0-0.3,0.1V163l-0.5,0.1l-0.5-0.1v0.1l-1.5,0.2
					c-0.3,0-0.5,0.3-0.4,0.5c0,0,0,0,0,0.1c0,0.3,0.3,0.5,0.6,0.4l1.9-0.2h0.1h0.3c0.1,0.1,0.2,0.1,0.3,0.1l2,0.3h0.1
					c0.3,0,0.5-0.2,0.5-0.4C247.8,163.6,247.6,163.4,247.4,163.3z M241,163.8c-0.1-0.2-0.3-0.4-0.5-0.4l-2,0.3
					c-0.3,0-0.4,0.3-0.4,0.5v0.1c0,0.3,0.3,0.4,0.5,0.4h0.1l2-0.3C240.9,164.4,241.1,164.1,241,163.8L241,163.8z M251.4,163.8h-0.1
					l-2-0.3h-0.1c-0.2,0-0.4,0.2-0.4,0.4c0,0.3,0.2,0.5,0.4,0.6l2,0.3c0,0,0,0,0.1,0c0.3,0,0.5-0.2,0.5-0.4
					C251.8,164.1,251.6,163.9,251.4,163.8z M237,164.3c-0.1-0.2-0.3-0.4-0.5-0.4l-2,0.3c-0.3,0-0.5,0.3-0.4,0.5l0,0
					c0,0.3,0.3,0.4,0.5,0.4h0.1l2-0.3C236.9,164.9,237.1,164.6,237,164.3L237,164.3z M255.4,164.3h-0.1l-2-0.3h-0.1
					c-0.2,0-0.4,0.2-0.4,0.4c0,0.3,0.2,0.5,0.4,0.6l2,0.3h0.1c0.2,0,0.5-0.2,0.5-0.4C255.7,164.6,255.6,164.4,255.4,164.3z
					 M233,164.8c-0.1-0.2-0.3-0.4-0.6-0.4l-2,0.3c-0.3,0-0.5,0.3-0.4,0.5c0,0,0,0,0,0.1c0,0.3,0.2,0.4,0.5,0.4h0.1l2-0.3
					C232.9,165.4,233.1,165.2,233,164.8C233,164.9,233,164.8,233,164.8z M259.4,164.8h-0.1l-2-0.3c-0.1,0-0.1,0-0.1,0
					c-0.2,0-0.4,0.2-0.4,0.4c0,0.3,0.2,0.5,0.4,0.6l2,0.3c0,0,0,0,0.1,0c0.2,0,0.5-0.2,0.5-0.4C259.7,165.1,259.6,164.9,259.4,164.8
					z M229,165.3c-0.1-0.2-0.3-0.4-0.5-0.4l-2,0.3c-0.3,0-0.5,0.3-0.4,0.5c0,0,0,0,0,0.1c0,0.3,0.3,0.4,0.5,0.4h0.1l2-0.3
					C228.9,165.9,229.1,165.7,229,165.3C229.1,165.4,229,165.4,229,165.3z M263.4,165.4h-0.1l-2-0.3c-0.1,0-0.1,0-0.1,0
					c-0.2,0-0.4,0.2-0.4,0.4c0,0.3,0.2,0.5,0.4,0.6l2,0.3c0,0,0,0,0.1,0c0.3,0,0.5-0.2,0.5-0.4C263.7,165.6,263.6,165.4,263.4,165.4
					z M225,165.9c-0.1-0.3-0.3-0.4-0.5-0.4l-2,0.3c-0.3,0-0.4,0.3-0.4,0.5v0.1c0,0.3,0.3,0.4,0.5,0.4h0.1l2-0.3
					C224.9,166.4,225.1,166.2,225,165.9C225.1,165.9,225,165.9,225,165.9z M267.4,165.9h-0.1l-2-0.3h-0.1c-0.2,0-0.4,0.2-0.5,0.4
					c0,0.3,0.2,0.5,0.4,0.6l2,0.3h0.1c0.3,0,0.5-0.2,0.5-0.4C267.7,166.2,267.6,165.9,267.4,165.9z M221,166.4
					c0-0.3-0.3-0.4-0.5-0.4l-2,0.3c-0.3,0-0.5,0.3-0.4,0.5c0,0,0,0,0,0.1c0,0.3,0.2,0.4,0.5,0.4h0.1l2-0.3
					C220.9,167,221.1,166.7,221,166.4C221.1,166.4,221.1,166.4,221,166.4z M271.4,166.4h-0.1l-2-0.3h-0.1c-0.2,0-0.4,0.2-0.5,0.4
					c0,0.3,0.2,0.5,0.4,0.6l2,0.3h0.1c0.2,0,0.5-0.2,0.5-0.4C271.7,166.7,271.6,166.4,271.4,166.4z M217,166.9
					c0-0.3-0.3-0.4-0.5-0.4l-2,0.3c-0.3,0-0.5,0.3-0.4,0.5c0,0,0,0,0,0.1c0,0.3,0.3,0.4,0.5,0.4h0.1l2-0.3
					C216.9,167.5,217.1,167.2,217,166.9C217.1,166.9,217.1,166.9,217,166.9z M275.4,166.9h-0.1l-2-0.3h-0.1c-0.2,0-0.4,0.2-0.5,0.4
					c0,0.3,0.2,0.5,0.4,0.6l2,0.3h0.1c0.3,0,0.5-0.2,0.5-0.4C275.7,167.2,275.6,167,275.4,166.9z M213.1,167.4
					c-0.1-0.3-0.3-0.4-0.5-0.4l-2,0.3c-0.3,0-0.4,0.3-0.4,0.5v0.1c0,0.3,0.3,0.4,0.5,0.4c0,0,0,0,0.1,0l2-0.3
					C212.9,168,213.1,167.7,213.1,167.4L213.1,167.4z M279.4,167.4h-0.1l-2-0.3h-0.1c-0.2,0-0.4,0.2-0.5,0.4c0,0.3,0.2,0.5,0.4,0.6
					l2,0.3h0.1c0.3,0,0.5-0.2,0.5-0.4C279.7,167.7,279.6,167.5,279.4,167.4z M209.1,167.9c-0.1-0.3-0.3-0.4-0.5-0.4l-2,0.3
					c-0.3,0-0.5,0.3-0.4,0.5v0.1c0,0.3,0.3,0.4,0.5,0.4c0,0,0,0,0.1,0l2-0.3C208.9,168.5,209.1,168.2,209.1,167.9L209.1,167.9z
					 M283.3,167.9L283.3,167.9l-2.1-0.3h-0.1c-0.2,0-0.4,0.2-0.5,0.4c0,0.3,0.2,0.5,0.4,0.6l2,0.3h0.1c0.3,0,0.5-0.2,0.5-0.4
					C283.7,168.2,283.6,168,283.3,167.9z M205.1,168.4c-0.1-0.3-0.3-0.4-0.6-0.4l-2,0.3c-0.3,0-0.5,0.3-0.4,0.5c0,0,0,0,0,0.1
					c0,0.3,0.2,0.4,0.5,0.4c0,0,0,0,0.1,0l2-0.3C204.9,169,205.1,168.8,205.1,168.4C205.1,168.5,205.1,168.4,205.1,168.4z
					 M287.3,168.4h-0.1l-2-0.3h-0.1c-0.2,0-0.4,0.2-0.5,0.4c0,0.3,0.2,0.5,0.4,0.6l2,0.3h0.1c0.2,0,0.5-0.2,0.5-0.4
					C287.7,168.7,287.6,168.5,287.3,168.4z M201.1,168.9c-0.1-0.2-0.3-0.4-0.6-0.4l-2,0.3c-0.3,0-0.5,0.3-0.4,0.5c0,0,0,0,0,0.1
					c0,0.3,0.3,0.4,0.5,0.4h0.1l2-0.3C200.9,169.5,201.1,169.3,201.1,168.9C201.1,169,201.1,169,201.1,168.9z M291.3,168.9
					L291.3,168.9l-2.1-0.3h-0.1c-0.2,0-0.4,0.2-0.5,0.4c0,0.3,0.2,0.5,0.4,0.6l2,0.3h0.1c0.3,0,0.5-0.2,0.5-0.4
					C291.7,169.2,291.5,169,291.3,168.9z M197.1,169.5c-0.1-0.2-0.3-0.4-0.5-0.4l-2,0.3c-0.3,0-0.4,0.3-0.4,0.5v0.1
					c0,0.3,0.3,0.4,0.5,0.4c0,0,0,0,0.1,0l2-0.3C196.9,170,197.1,169.8,197.1,169.5L197.1,169.5z M295.3,169.5
					C295.3,169.4,295.2,169.4,295.3,169.5l-2.1-0.3h-0.1c-0.2,0-0.4,0.2-0.5,0.4c0,0.3,0.2,0.5,0.4,0.6l2,0.3h0.1
					c0.3,0,0.5-0.2,0.5-0.4C295.7,169.7,295.5,169.5,295.3,169.5z M193.1,170c0-0.2-0.3-0.4-0.5-0.4l-2,0.3c-0.3,0-0.5,0.3-0.4,0.5
					v0.1c0,0.3,0.3,0.4,0.5,0.4h0.1l2-0.3C192.9,170.5,193.1,170.3,193.1,170L193.1,170z M299.3,170
					C299.3,170,299.2,169.9,299.3,170l-2.1-0.3h-0.1c-0.2,0-0.4,0.2-0.5,0.4c0,0.3,0.2,0.5,0.4,0.6l2,0.3h0.1c0.2,0,0.5-0.2,0.5-0.4
					C299.7,170.3,299.5,170,299.3,170z M189.1,170.5c-0.1-0.2-0.3-0.4-0.6-0.4l-2,0.3c-0.3,0-0.5,0.3-0.4,0.5c0,0,0,0,0,0.1
					c0,0.3,0.3,0.4,0.5,0.4h0.1l2-0.3C188.9,171.1,189.1,170.8,189.1,170.5L189.1,170.5z M303.3,170.5
					C303.3,170.5,303.2,170.5,303.3,170.5l-2.1-0.3h-0.1c-0.2,0-0.4,0.2-0.5,0.4c0,0.3,0.2,0.5,0.4,0.6l2,0.3c0,0,0,0,0.1,0
					c0.2,0,0.5-0.2,0.5-0.4C303.7,170.8,303.5,170.5,303.3,170.5z M185.1,171c-0.1-0.2-0.3-0.4-0.5-0.4l-2,0.3
					c-0.3,0-0.4,0.3-0.4,0.5v0.1c0,0.3,0.3,0.4,0.5,0.4h0.1l2-0.3C185,171.6,185.1,171.3,185.1,171L185.1,171z M307.3,171
					C307.3,171,307.2,171,307.3,171l-2.1-0.3h-0.1c-0.2,0-0.4,0.2-0.5,0.4c0,0.3,0.2,0.5,0.4,0.6l2,0.3c0,0,0,0,0.1,0
					c0.3,0,0.5-0.2,0.5-0.4C307.7,171.3,307.5,171.1,307.3,171z M181.1,171.5c-0.1-0.2-0.3-0.4-0.5-0.4l-2,0.3
					c-0.3,0-0.4,0.3-0.4,0.5v0.1c0,0.3,0.3,0.4,0.5,0.4h0.1l2-0.3C181,172.1,181.2,171.8,181.1,171.5L181.1,171.5z M311.3,171.5
					C311.2,171.5,311.2,171.5,311.3,171.5l-2.1-0.3h-0.1l0,0c-0.2,0-0.5,0.2-0.5,0.4c0,0.3,0.2,0.5,0.4,0.6l2,0.3c0,0,0,0,0.1,0
					c0.3,0,0.5-0.2,0.5-0.4C311.7,171.8,311.5,171.6,311.3,171.5z M177.1,172c-0.1-0.2-0.3-0.4-0.6-0.4l-2,0.3
					c-0.3,0-0.4,0.2-0.4,0.5c0,0,0,0,0,0.1c0,0.3,0.2,0.4,0.5,0.4h0.1l2-0.3C177,172.6,177.2,172.4,177.1,172
					C177.1,172.1,177.1,172,177.1,172z M315.3,172C315.2,172,315.2,172,315.3,172l-2.1-0.3h-0.1c-0.2,0-0.4,0.2-0.4,0.4
					c0,0.3,0.2,0.5,0.4,0.6l2,0.3c0,0,0,0,0.1,0c0.2,0,0.5-0.2,0.5-0.4C315.7,172.3,315.5,172.1,315.3,172z M173.1,172.5
					c-0.1-0.2-0.3-0.4-0.6-0.4l-2,0.3c-0.3,0-0.4,0.2-0.4,0.5c0,0,0,0,0,0.1c0,0.3,0.3,0.4,0.5,0.4h0.1l2-0.3
					C173,173.1,173.2,172.9,173.1,172.5C173.1,172.6,173.1,172.6,173.1,172.5z M319.3,172.5C319.2,172.5,319.2,172.5,319.3,172.5
					l-2.1-0.3h-0.1l0,0c-0.2,0-0.4,0.2-0.5,0.4c0,0.3,0.2,0.5,0.4,0.6l2,0.3h0.1c0.3,0,0.5-0.2,0.5-0.4
					C319.6,172.8,319.5,172.6,319.3,172.5z M169.1,173.1c-0.1-0.3-0.3-0.4-0.5-0.4l-2,0.3c-0.3,0-0.4,0.3-0.4,0.5v0.1
					c0,0.3,0.3,0.4,0.5,0.4h0.1l2-0.3C169,173.6,169.2,173.4,169.1,173.1L169.1,173.1z M323.3,173.1
					C323.2,173,323.2,173,323.3,173.1l-2.1-0.3h-0.1l0,0c-0.2,0-0.4,0.2-0.5,0.4c0,0.3,0.2,0.5,0.4,0.6l2,0.3h0.1
					c0.3,0,0.5-0.2,0.5-0.4C323.6,173.3,323.5,173.1,323.3,173.1z M165.1,173.6c-0.1-0.3-0.3-0.4-0.5-0.4l-2,0.3
					c-0.3,0-0.5,0.3-0.4,0.6c0,0.3,0.3,0.4,0.5,0.4c0,0,0,0,0.1,0l0.8-0.1l1.2-0.2C165,174.2,165.2,173.9,165.1,173.6L165.1,173.6z
					 M327.2,173.6C327.2,173.6,327.2,173.5,327.2,173.6l-2-0.3h-0.1c-0.2,0-0.5,0.2-0.5,0.4c0,0.3,0.2,0.5,0.4,0.6l2,0.3h0.1
					c0.2,0,0.5-0.2,0.5-0.4C327.6,173.8,327.5,173.6,327.2,173.6z M162,175.9V175c0-0.3-0.2-0.5-0.5-0.5s-0.5,0.2-0.5,0.5v1.9v0.1
					c0,0.3,0.2,0.5,0.5,0.5s0.5-0.2,0.5-0.5V175.9z M327.5,175.2c-0.3,0-0.5,0.2-0.5,0.5v2c0,0.3,0.2,0.5,0.5,0.5s0.5-0.2,0.5-0.5
					v-2C328,175.4,327.8,175.2,327.5,175.2z M162,178.9c0-0.3-0.2-0.5-0.5-0.5s-0.5,0.2-0.5,0.5v2c0,0.3,0.2,0.5,0.5,0.5
					s0.5-0.2,0.5-0.5V178.9z M327.5,179.2L327.5,179.2c-0.3,0-0.5,0.2-0.5,0.5c0,0.7,0,1.3,0,2c0,0.3,0.2,0.5,0.5,0.5
					s0.5-0.2,0.5-0.5c0-0.7,0-1.3,0-2C328,179.4,327.8,179.2,327.5,179.2z M162.1,183c0-0.3-0.2-0.5-0.5-0.5s-0.5,0.2-0.5,0.5
					c0,0.7,0,1.3,0.1,2c0,0.3,0.2,0.5,0.5,0.5l0,0c0.3,0,0.5-0.2,0.5-0.5C162.1,184.3,162.1,183.6,162.1,183z M327.4,183.2
					c-0.3,0-0.5,0.2-0.5,0.5v2c0,0.3,0.2,0.5,0.5,0.5l0,0c0.3,0,0.5-0.2,0.5-0.5v-2C327.9,183.5,327.7,183.2,327.4,183.2z
					 M162.2,187c0-0.3-0.2-0.5-0.5-0.5s-0.5,0.2-0.5,0.5c0,0.7,0,1.3,0.1,2c0,0.3,0.2,0.5,0.5,0.5l0,0c0.3,0,0.5-0.2,0.5-0.5
					C162.2,188.3,162.2,187.7,162.2,187z M327.3,187.2L327.3,187.2c-0.3,0-0.5,0.2-0.5,0.5c0,0.7-0.1,1.3-0.1,2
					c0,0.3,0.2,0.5,0.5,0.5l0,0c0.3,0,0.5-0.2,0.5-0.5c0-0.7,0.1-1.3,0.1-2C327.8,187.5,327.6,187.3,327.3,187.2z M162.3,191
					c0-0.3-0.3-0.5-0.5-0.5c-0.3,0-0.5,0.3-0.5,0.5c0,0.7,0.1,1.3,0.1,2c0,0.3,0.2,0.5,0.5,0.5l0,0c0.3,0,0.5-0.3,0.5-0.5
					C162.4,192.3,162.3,191.7,162.3,191z M327.2,191.3L327.2,191.3c-0.3,0-0.5,0.2-0.5,0.5l-0.1,2c0,0.3,0.2,0.5,0.5,0.5l0,0
					c0.3,0,0.5-0.2,0.5-0.5l0.1-2C327.7,191.5,327.5,191.3,327.2,191.3z M162.5,195c0-0.3-0.3-0.5-0.5-0.5c-0.3,0-0.5,0.3-0.5,0.5
					c0,0.7,0.1,1.3,0.1,2c0,0.3,0.2,0.5,0.5,0.5l0,0c0.3,0,0.5-0.3,0.5-0.5C162.5,196.3,162.5,195.7,162.5,195z M327,195.3
					c-0.3,0-0.5,0.2-0.5,0.5l-0.1,2c0,0.3,0.2,0.5,0.5,0.5l0,0c0.3,0,0.5-0.2,0.5-0.5l0.1-2C327.5,195.5,327.3,195.3,327,195.3z
					 M162.7,199c0-0.3-0.3-0.5-0.5-0.5c-0.3,0-0.5,0.3-0.5,0.5c0,0.7,0.1,1.3,0.1,2c0,0.3,0.2,0.5,0.5,0.5l0,0
					c0.3,0,0.5-0.3,0.5-0.5C162.8,200.4,162.7,199.7,162.7,199z M326.8,199.3c-0.3,0-0.5,0.2-0.5,0.5c0,0.7-0.1,1.3-0.1,2
					c0,0.3,0.2,0.5,0.5,0.5l0,0c0.3,0,0.5-0.2,0.5-0.5c0-0.7,0.1-1.3,0.1-2C327.3,199.6,327.1,199.3,326.8,199.3z M163,203
					c0-0.3-0.3-0.5-0.5-0.5c-0.3,0-0.5,0.3-0.5,0.5c0,0.7,0.1,1.3,0.2,2c0,0.3,0.2,0.5,0.5,0.5l0,0c0.3,0,0.5-0.3,0.5-0.5
					C163.1,204.4,163,203.7,163,203z M326.5,203.3c-0.3,0-0.5,0.2-0.5,0.5c-0.1,0.7-0.1,1.3-0.2,2c0,0.3,0.2,0.5,0.5,0.5l0,0
					c0.3,0,0.5-0.2,0.5-0.5c0.1-0.7,0.1-1.3,0.2-2C327,203.6,326.8,203.3,326.5,203.3z M163.3,207.1c0-0.3-0.3-0.5-0.5-0.5
					c-0.3,0-0.5,0.3-0.5,0.5c0.1,0.7,0.1,1.3,0.2,2c0,0.3,0.2,0.5,0.5,0.5l0,0c0.3,0,0.5-0.3,0.5-0.6
					C163.4,208.4,163.3,207.7,163.3,207.1z M326.2,207.3c-0.3,0-0.5,0.2-0.6,0.5c-0.1,0.7-0.1,1.3-0.2,2c0,0.3,0.2,0.5,0.5,0.6h0.1
					c0.3,0,0.5-0.2,0.5-0.5c0.1-0.7,0.1-1.3,0.2-2C326.7,207.6,326.5,207.4,326.2,207.3z M163.6,211c0-0.3-0.3-0.5-0.5-0.5
					c-0.3,0-0.5,0.3-0.5,0.6c0.1,0.7,0.1,1.3,0.2,2c0,0.3,0.3,0.5,0.5,0.5h0.1c0.3,0,0.5-0.3,0.5-0.6
					C163.8,212.4,163.7,211.7,163.6,211z M325.8,211.3c-0.3,0-0.5,0.2-0.5,0.5c-0.1,0.7-0.1,1.3-0.2,2c0,0.3,0.2,0.5,0.4,0.6h0.1
					c0.3,0,0.5-0.2,0.5-0.5c0.1-0.7,0.1-1.3,0.2-2C326.3,211.6,326.1,211.4,325.8,211.3z M164.1,215c0-0.3-0.3-0.5-0.6-0.4
					c-0.3,0-0.5,0.3-0.5,0.6c0.1,0.7,0.2,1.3,0.2,2c0,0.3,0.2,0.5,0.5,0.5c0,0,0,0,0.1,0c0.3,0,0.5-0.3,0.4-0.6
					C164.2,216.4,164.1,215.7,164.1,215z M325.4,215.4c-0.3,0-0.5,0.2-0.6,0.4l-0.2,2c0,0.3,0.2,0.5,0.4,0.6h0.1
					c0.3,0,0.5-0.2,0.5-0.4l0.2-2C325.9,215.6,325.7,215.4,325.4,215.4z M164.5,219c0-0.3-0.3-0.5-0.6-0.4c-0.3,0-0.5,0.3-0.4,0.6
					c0.1,0.7,0.2,1.3,0.3,2c0,0.3,0.3,0.4,0.5,0.4h0.1c0.3,0,0.5-0.3,0.4-0.6C164.7,220.4,164.6,219.7,164.5,219z M325,219.4
					c-0.3,0-0.5,0.2-0.6,0.4c-0.1,0.7-0.2,1.3-0.3,2c0,0.3,0.2,0.5,0.4,0.6h0.1c0.3,0,0.5-0.2,0.5-0.4c0.1-0.7,0.2-1.3,0.3-2
					C325.4,219.6,325.2,219.4,325,219.4z M165,223c0-0.3-0.3-0.5-0.6-0.4c-0.3,0-0.5,0.3-0.4,0.6c0.1,0.7,0.2,1.3,0.3,2
					c0,0.3,0.2,0.4,0.5,0.4h0.1c0.3,0,0.5-0.3,0.4-0.6C165.2,224.4,165.1,223.7,165,223z M324.4,223.4c-0.3,0-0.5,0.2-0.6,0.4
					l-0.3,2c0,0.3,0.2,0.5,0.4,0.6h0.1c0.2,0,0.5-0.2,0.5-0.4l0.3-2C324.9,223.6,324.7,223.4,324.4,223.4z M165.6,227
					c0-0.3-0.3-0.5-0.6-0.4c-0.3,0-0.5,0.3-0.4,0.6c0.1,0.7,0.2,1.3,0.3,2c0,0.3,0.3,0.4,0.5,0.4h0.1c0.3-0.1,0.5-0.3,0.4-0.6
					C165.8,228.3,165.7,227.7,165.6,227z M323.9,227.3c-0.3,0-0.5,0.1-0.6,0.4c-0.1,0.7-0.2,1.3-0.3,2c0,0.3,0.1,0.5,0.4,0.6h0.1
					c0.2,0,0.5-0.2,0.5-0.4c0.1-0.7,0.2-1.3,0.3-2C324.3,227.6,324.1,227.4,323.9,227.3z M166.2,231c0-0.3-0.3-0.5-0.6-0.4
					s-0.5,0.3-0.4,0.6c0.1,0.7,0.2,1.3,0.3,2c0.1,0.3,0.3,0.4,0.5,0.4h0.1c0.3,0,0.5-0.3,0.4-0.6C166.4,232.3,166.3,231.6,166.2,231
					z M323.2,231.3c-0.3-0.1-0.5,0.1-0.6,0.4c-0.1,0.7-0.2,1.3-0.3,2c-0.1,0.3,0.1,0.5,0.4,0.6h0.1c0.2,0,0.5-0.2,0.5-0.4
					c0.1-0.7,0.2-1.3,0.3-2C323.7,231.6,323.5,231.4,323.2,231.3z M166.9,234.9c-0.1-0.3-0.3-0.5-0.6-0.4s-0.5,0.3-0.4,0.6
					c0.1,0.7,0.2,1.3,0.4,2c0,0.2,0.3,0.4,0.5,0.4h0.1c0.3-0.1,0.5-0.3,0.4-0.6C167.1,236.3,167,235.6,166.9,234.9z M322.6,235.3
					c-0.3-0.1-0.5,0.1-0.6,0.4c-0.1,0.7-0.2,1.3-0.4,2c-0.1,0.3,0.1,0.5,0.4,0.6h0.1c0.2,0,0.5-0.2,0.5-0.4c0.1-0.7,0.3-1.3,0.4-2
					C323,235.6,322.8,235.3,322.6,235.3z M167.6,238.9c-0.1-0.3-0.3-0.5-0.6-0.4s-0.5,0.3-0.4,0.6c0.1,0.7,0.3,1.3,0.4,2
					c0.1,0.2,0.3,0.4,0.5,0.4h0.1c0.3-0.1,0.4-0.3,0.4-0.6C167.9,240.2,167.8,239.5,167.6,238.9z M321.8,239.2
					c-0.3-0.1-0.5,0.1-0.6,0.4c-0.1,0.7-0.3,1.3-0.4,2c-0.1,0.3,0.1,0.5,0.4,0.6h0.1c0.2,0,0.5-0.2,0.5-0.4c0.1-0.7,0.3-1.3,0.4-2
					C322.3,239.6,322.1,239.3,321.8,239.2z M168.8,244.8c-0.1-0.6-0.3-1.3-0.4-2c-0.1-0.3-0.3-0.5-0.6-0.4s-0.4,0.3-0.4,0.6
					c0.1,0.7,0.3,1.3,0.4,2c0.1,0.2,0.3,0.4,0.5,0.4h0.1C168.7,245.3,168.9,245.1,168.8,244.8z M321,243.2c-0.3-0.1-0.5,0.1-0.6,0.4
					c-0.1,0.7-0.3,1.3-0.4,2c-0.1,0.3,0.1,0.5,0.4,0.6h0.1c0.2,0,0.4-0.2,0.5-0.4c0.2-0.7,0.3-1.3,0.4-2
					C321.5,243.5,321.3,243.2,321,243.2z M169.8,248.7c-0.2-0.6-0.3-1.3-0.5-2c-0.1-0.3-0.3-0.4-0.6-0.4c-0.3,0.1-0.4,0.3-0.4,0.6
					c0.2,0.7,0.3,1.3,0.5,2c0.1,0.2,0.3,0.4,0.5,0.4h0.1C169.7,249.2,169.8,249,169.8,248.7z M320.1,247.1c-0.3-0.1-0.5,0.1-0.6,0.4
					c-0.2,0.7-0.3,1.3-0.5,2c-0.1,0.3,0.1,0.5,0.4,0.6h0.1c0.2,0,0.4-0.2,0.5-0.4c0.2-0.7,0.3-1.3,0.5-2
					C320.6,247.4,320.4,247.2,320.1,247.1z M170.7,252.6c-0.2-0.6-0.3-1.3-0.5-2c-0.1-0.3-0.3-0.4-0.6-0.4c-0.3,0.1-0.4,0.3-0.4,0.6
					c0.2,0.7,0.3,1.3,0.5,2c0.1,0.2,0.3,0.4,0.5,0.4h0.1C170.6,253.2,170.8,252.9,170.7,252.6z M319.2,251c-0.3-0.1-0.5,0.1-0.6,0.4
					c-0.2,0.7-0.3,1.3-0.5,1.9c-0.1,0.3,0.1,0.6,0.4,0.6h0.1c0.2,0,0.4-0.2,0.5-0.4c0.2-0.7,0.3-1.3,0.5-2
					C319.6,251.4,319.5,251.1,319.2,251z M171.8,256.5c-0.2-0.6-0.4-1.3-0.5-1.9c-0.1-0.3-0.3-0.4-0.6-0.4c-0.3,0.1-0.4,0.4-0.4,0.6
					c0.2,0.7,0.4,1.3,0.5,2c0.1,0.2,0.3,0.4,0.5,0.4c0.1,0,0.1,0,0.1,0C171.7,257,171.8,256.8,171.8,256.5z M318.2,254.9
					c-0.3-0.1-0.5,0.1-0.6,0.4c-0.2,0.7-0.4,1.3-0.5,1.9c-0.1,0.3,0.1,0.6,0.4,0.6c0.1,0,0.1,0,0.1,0c0.2,0,0.4-0.1,0.5-0.4
					c0.2-0.6,0.4-1.3,0.5-2C318.6,255.3,318.5,255,318.2,254.9z M172.9,260.3c-0.2-0.6-0.4-1.3-0.6-1.9c-0.1-0.3-0.4-0.4-0.6-0.3
					c-0.3,0.1-0.4,0.4-0.3,0.6c0.2,0.6,0.4,1.3,0.6,1.9c0.1,0.2,0.3,0.4,0.5,0.4c0.1,0,0.1,0,0.1,0
					C172.8,260.9,172.9,260.6,172.9,260.3z M317.1,258.8c-0.3-0.1-0.5,0.1-0.6,0.3c-0.2,0.6-0.4,1.3-0.6,1.9
					c-0.1,0.3,0.1,0.6,0.3,0.6c0.1,0,0.1,0,0.2,0c0.2,0,0.4-0.1,0.5-0.4c0.2-0.6,0.4-1.3,0.6-1.9
					C317.5,259.2,317.4,258.9,317.1,258.8z M174.1,264.2c-0.2-0.6-0.4-1.3-0.6-1.9c-0.1-0.3-0.4-0.4-0.6-0.3
					c-0.3,0.1-0.4,0.4-0.3,0.6c0.2,0.6,0.4,1.3,0.6,1.9c0.1,0.2,0.3,0.4,0.5,0.4c0.1,0,0.1,0,0.2,0
					C174,264.7,174.1,264.4,174.1,264.2z M316,262.7c-0.3-0.1-0.6,0.1-0.6,0.3c-0.2,0.6-0.4,1.3-0.6,1.9c-0.1,0.3,0.1,0.5,0.3,0.6
					c0.1,0,0.1,0,0.2,0c0.2,0,0.4-0.1,0.5-0.3c0.2-0.6,0.4-1.3,0.6-1.9C316.4,263,316.2,262.7,316,262.7z M175.3,268
					c-0.2-0.6-0.4-1.3-0.6-1.9c-0.1-0.3-0.4-0.4-0.6-0.3c-0.3,0.1-0.4,0.4-0.3,0.6c0.2,0.6,0.4,1.3,0.6,1.9c0.1,0.2,0.3,0.3,0.5,0.3
					c0.1,0,0.1,0,0.2,0C175.3,268.5,175.4,268.3,175.3,268z M314.7,266.5c-0.3-0.1-0.5,0.1-0.6,0.3c-0.2,0.6-0.4,1.3-0.7,1.9
					c-0.1,0.3,0.1,0.5,0.3,0.6c0.1,0,0.1,0,0.2,0c0.2,0,0.4-0.1,0.5-0.3c0.2-0.6,0.4-1.3,0.7-1.9C315.1,266.9,315,266.6,314.7,266.5
					z M176.7,271.8c-0.2-0.6-0.5-1.3-0.7-1.9c-0.1-0.3-0.4-0.4-0.6-0.3c-0.3,0.1-0.4,0.4-0.3,0.6c0.2,0.6,0.5,1.3,0.7,1.9
					c0.1,0.2,0.3,0.3,0.5,0.3c0.1,0,0.1,0,0.2,0C176.6,272.3,176.8,272,176.7,271.8z M313.4,270.3c-0.3-0.1-0.6,0-0.7,0.3
					c-0.2,0.6-0.5,1.3-0.7,1.9c-0.1,0.3,0,0.6,0.3,0.6c0.1,0,0.1,0,0.2,0c0.2,0,0.4-0.1,0.5-0.3c0.2-0.6,0.5-1.3,0.7-1.9
					C313.8,270.7,313.7,270.4,313.4,270.3z M178.1,275.5c-0.2-0.6-0.5-1.2-0.7-1.9c-0.1-0.3-0.4-0.4-0.6-0.3
					c-0.3,0.1-0.4,0.4-0.3,0.7c0.2,0.6,0.5,1.3,0.7,1.9c0.1,0.2,0.3,0.3,0.5,0.3c0.1,0,0.1,0,0.2,0
					C178.1,276.1,178.2,275.8,178.1,275.5z M312,274.1c-0.3-0.1-0.6,0-0.7,0.3c-0.2,0.6-0.5,1.2-0.7,1.9c-0.1,0.3,0,0.5,0.3,0.7
					c0.1,0,0.1,0,0.2,0c0.2,0,0.4-0.1,0.5-0.3c0.3-0.6,0.5-1.2,0.7-1.9C312.4,274.5,312.3,274.2,312,274.1z M179.6,279.2
					c-0.3-0.6-0.5-1.2-0.8-1.9c-0.1-0.3-0.4-0.4-0.7-0.3s-0.4,0.4-0.3,0.7c0.3,0.6,0.5,1.2,0.8,1.9c0.1,0.2,0.3,0.3,0.5,0.3
					c0.1,0,0.1,0,0.2,0C179.6,279.8,179.7,279.5,179.6,279.2z M310.5,277.8c-0.3-0.1-0.5,0-0.7,0.3c-0.3,0.6-0.5,1.2-0.8,1.9
					c-0.1,0.3,0,0.6,0.3,0.7c0.1,0,0.1,0,0.2,0c0.2,0,0.4-0.1,0.5-0.3c0.3-0.6,0.5-1.2,0.8-1.9C310.9,278.2,310.8,277.9,310.5,277.8
					z M181.2,282.9c-0.3-0.6-0.5-1.2-0.8-1.8c-0.1-0.3-0.4-0.4-0.7-0.3s-0.4,0.4-0.3,0.7c0.3,0.6,0.5,1.2,0.8,1.8
					c0.1,0.2,0.3,0.3,0.5,0.3c0.1,0,0.1,0,0.2-0.1C181.2,283.5,181.3,283.2,181.2,282.9z M309,281.5c-0.3-0.1-0.6,0-0.7,0.3
					c-0.3,0.6-0.6,1.2-0.8,1.8c-0.1,0.3,0,0.6,0.3,0.7c0.1,0,0.1,0,0.2,0c0.2,0,0.4-0.1,0.5-0.3c0.3-0.6,0.6-1.2,0.8-1.8
					C309.3,281.9,309.2,281.6,309,281.5z M182.9,286.5c-0.3-0.6-0.6-1.2-0.9-1.8c-0.1-0.3-0.4-0.4-0.7-0.2c-0.3,0.1-0.4,0.4-0.2,0.7
					c0.3,0.6,0.6,1.2,0.9,1.8c0.1,0.2,0.3,0.3,0.5,0.3c0.1,0,0.2,0,0.2-0.1C182.9,287.1,183,286.8,182.9,286.5z M307.3,285.2
					c-0.2-0.1-0.5,0-0.7,0.2c-0.3,0.6-0.6,1.2-0.9,1.8c-0.1,0.3,0,0.6,0.2,0.7c0.1,0,0.2,0.1,0.2,0.1c0.1,0,0.3-0.1,0.4-0.2l0,0
					l0.1-0.1c0.1-0.2,0.2-0.5,0.4-0.7c0-0.1,0.1-0.1,0.1-0.1c0.2-0.3,0.3-0.6,0.5-0.9C307.6,285.6,307.5,285.3,307.3,285.2z
					 M184.7,290.1c-0.3-0.6-0.6-1.2-0.9-1.8c-0.1-0.2-0.4-0.3-0.7-0.2c-0.2,0.1-0.3,0.4-0.2,0.7c0.3,0.6,0.6,1.2,0.9,1.8
					c0.1,0.2,0.3,0.3,0.5,0.3c0.1,0,0.2,0,0.2-0.1C184.8,290.7,184.9,290.4,184.7,290.1z M305.5,288.8c-0.2-0.1-0.5,0-0.7,0.2
					c-0.3,0.6-0.6,1.2-0.9,1.8c-0.1,0.3,0,0.6,0.2,0.7c0.1,0,0.2,0.1,0.2,0.1c0.1,0,0.2,0,0.2-0.1l0,0c0.1-0.1,0.1-0.1,0.2-0.2
					c0.3-0.6,0.6-1.2,0.9-1.8c0-0.1,0.1-0.1,0.1-0.2C305.8,289.1,305.7,288.9,305.5,288.8z M186.6,293.7c-0.3-0.6-0.6-1.2-1-1.8
					c-0.1-0.2-0.4-0.3-0.7-0.2c-0.2,0.1-0.3,0.4-0.2,0.7c0.3,0.6,0.6,1.2,1,1.8c0.1,0.2,0.3,0.3,0.4,0.3c0.1,0,0.2,0,0.2-0.1
					C186.7,294.2,186.8,293.9,186.6,293.7z M303.7,292.4c-0.2-0.1-0.5,0-0.7,0.2c-0.3,0.6-0.7,1.2-1,1.8c-0.1,0.2-0.1,0.6,0.2,0.7
					c0.1,0.1,0.2,0.1,0.3,0.1h0.1c0.1,0,0.2-0.1,0.3-0.2c0.3-0.6,0.7-1.2,1-1.8c0.1-0.1,0.1-0.2,0.1-0.3
					C303.9,292.6,303.8,292.4,303.7,292.4z M188.6,297.1c-0.3-0.6-0.7-1.1-1-1.7c-0.1-0.2-0.5-0.3-0.7-0.2c-0.2,0.1-0.3,0.4-0.2,0.7
					c0.3,0.6,0.7,1.2,1,1.7c0.1,0.2,0.3,0.3,0.4,0.3c0.1,0,0.2,0,0.3-0.1C188.7,297.7,188.8,297.4,188.6,297.1z M301.9,296.1
					c0-0.1-0.1-0.2-0.2-0.3c-0.2-0.1-0.5-0.1-0.7,0.2c-0.3,0.6-0.7,1.2-1,1.7c-0.1,0.2-0.1,0.6,0.2,0.7c0.1,0.1,0.2,0.1,0.3,0.1l0,0
					c0.2,0,0.3-0.1,0.4-0.2c0.3-0.6,0.7-1.1,1-1.7C302,296.4,302,296.3,301.9,296.1z M190.7,300.5c-0.4-0.6-0.7-1.1-1.1-1.7
					c-0.2-0.2-0.5-0.3-0.7-0.2c-0.2,0.2-0.3,0.5-0.2,0.7c0.4,0.6,0.7,1.1,1.1,1.7c0.1,0.2,0.3,0.2,0.4,0.2c0.1,0,0.2,0,0.3-0.1
					C190.8,301.1,190.9,300.8,190.7,300.5z M299.8,299.5c0-0.1-0.1-0.1-0.2-0.2c-0.2-0.1-0.5-0.1-0.7,0.2c-0.4,0.6-0.7,1.1-1.1,1.7
					c-0.2,0.2-0.1,0.5,0.2,0.7c0.1,0,0.1,0.1,0.2,0.1h0.1c0.2,0,0.3-0.1,0.4-0.2c0.4-0.6,0.7-1.1,1.1-1.7
					C299.9,299.9,299.9,299.7,299.8,299.5z M192.9,303.9c-0.4-0.5-0.7-1.1-1.1-1.7c-0.2-0.2-0.5-0.3-0.7-0.1
					c-0.2,0.2-0.3,0.5-0.1,0.7c0.4,0.6,0.7,1.1,1.1,1.7c0.1,0.2,0.3,0.2,0.4,0.2c0.1,0,0.2,0,0.3-0.1
					C193,304.4,193.1,304.1,192.9,303.9z M297.6,302.8l-0.1-0.1c-0.2-0.2-0.5-0.1-0.7,0.1c-0.4,0.6-0.8,1.1-1.1,1.7
					c-0.2,0.2-0.1,0.5,0.1,0.7h0.1c0.1,0,0.1,0.1,0.2,0.1c0.2,0,0.3-0.1,0.4-0.2c0.4-0.6,0.8-1.1,1.1-1.7
					C297.7,303.2,297.7,303,297.6,302.8z M195.3,307.2c-0.4-0.5-0.8-1.1-1.2-1.6c-0.2-0.2-0.5-0.3-0.7-0.1c-0.2,0.2-0.3,0.5-0.1,0.7
					c0.4,0.6,0.8,1.1,1.2,1.6c0.1,0.1,0.3,0.2,0.4,0.2c0.1,0,0.2,0,0.3-0.1C195.4,307.7,195.4,307.4,195.3,307.2z M295.2,306.1
					C295.2,306.1,295.2,306,295.2,306.1c-0.3-0.2-0.6-0.2-0.7,0.1c-0.4,0.5-0.8,1.1-1.2,1.6c-0.2,0.2-0.1,0.5,0.1,0.7l0,0
					c0.1,0.1,0.2,0.1,0.3,0.1c0.2,0,0.3-0.1,0.4-0.2c0.4-0.5,0.8-1.1,1.2-1.6C295.4,306.5,295.4,306.2,295.2,306.1z M197.7,310.3
					c-0.4-0.5-0.8-1-1.2-1.6c-0.2-0.2-0.5-0.3-0.7-0.1c-0.2,0.2-0.3,0.5-0.1,0.7c0.4,0.5,0.8,1.1,1.2,1.6c0.1,0.1,0.3,0.2,0.4,0.2
					c0.1,0,0.2,0,0.3-0.1C197.8,310.9,197.9,310.6,197.7,310.3z M292.8,309.3C292.8,309.3,292.7,309.2,292.8,309.3
					c-0.3-0.2-0.5-0.1-0.7,0.1c-0.4,0.5-0.8,1.1-1.2,1.6c-0.1,0.2-0.1,0.4,0,0.6l0.1,0.1c0.1,0.1,0.2,0.1,0.3,0.1
					c0.2,0,0.3-0.1,0.4-0.2c0.4-0.5,0.8-1,1.2-1.6C293,309.8,293,309.4,292.8,309.3z M200.2,313.4c-0.4-0.5-0.9-1-1.3-1.5
					c-0.2-0.2-0.5-0.2-0.7-0.1c-0.2,0.2-0.2,0.5-0.1,0.7c0.4,0.5,0.9,1,1.3,1.6c0.1,0.1,0.2,0.2,0.4,0.2c0.1,0,0.2,0,0.3-0.1
					C200.4,314,200.4,313.6,200.2,313.4z M290.3,312.4c0,0-0.1-0.1-0.2-0.1c-0.2-0.1-0.4,0-0.6,0.2c-0.4,0.5-0.9,1-1.3,1.5
					c-0.1,0.1-0.1,0.3-0.1,0.4s0.1,0.2,0.2,0.3c0.1,0.1,0.2,0.1,0.3,0.1c0.1,0,0.3-0.1,0.4-0.2c0.4-0.5,0.9-1,1.3-1.5
					C290.5,312.9,290.5,312.6,290.3,312.4z M202.9,316.4c-0.5-0.5-0.9-1-1.3-1.5c-0.2-0.2-0.5-0.2-0.7,0s-0.2,0.5-0.1,0.7
					c0.5,0.5,0.9,1,1.4,1.5c0.1,0.1,0.2,0.2,0.4,0.2c0.1,0,0.2,0,0.3-0.1C203.1,316.9,203.1,316.6,202.9,316.4z M287.7,315.5
					c-0.1-0.1-0.3-0.1-0.4-0.1s-0.2,0.1-0.3,0.2c-0.5,0.5-0.9,1-1.3,1.5c0,0,0,0.1-0.1,0.1c-0.1,0.2-0.1,0.5,0.1,0.6
					c0.1,0.1,0.2,0.1,0.3,0.1c0.1,0,0.3-0.1,0.4-0.2c0.5-0.5,0.9-1,1.4-1.5C287.9,316,287.9,315.7,287.7,315.5z M205.7,319.3
					c-0.5-0.5-0.9-0.9-1.4-1.4c-0.2-0.2-0.5-0.2-0.7,0s-0.2,0.5,0,0.7c0.5,0.5,0.9,1,1.4,1.4c0.1,0.1,0.2,0.2,0.4,0.2
					c0.1,0,0.3-0.1,0.4-0.2C205.9,319.8,205.9,319.5,205.7,319.3z M284.9,318.4c-0.2-0.2-0.5-0.2-0.7,0c-0.5,0.5-0.9,1-1.4,1.4
					c-0.2,0.2-0.2,0.5,0,0.7c0.1,0.1,0.2,0.2,0.4,0.2c0.1,0,0.3-0.1,0.4-0.2c0.5-0.5,1-0.9,1.4-1.4
					C285.1,318.9,285.1,318.6,284.9,318.4z M208.6,322.1c-0.5-0.4-1-0.9-1.5-1.4c-0.2-0.2-0.5-0.2-0.7,0s-0.2,0.5,0,0.7
					c0.5,0.5,1,0.9,1.5,1.4c0.1,0.1,0.2,0.1,0.3,0.1s0.3-0.1,0.4-0.2C208.8,322.6,208.8,322.3,208.6,322.1z M282.1,321.3
					c-0.2-0.2-0.5-0.2-0.7,0l0,0c-0.5,0.5-1,0.9-1.5,1.4c-0.1,0.1-0.1,0.2-0.2,0.3l0,0c0,0.2,0,0.3,0.1,0.4s0.2,0.2,0.4,0.2
					c0.1,0,0.2,0,0.3-0.1c0.5-0.5,1-0.9,1.5-1.4C282.2,321.8,282.3,321.5,282.1,321.3z M211.6,324.7c-0.5-0.4-1-0.9-1.5-1.3
					c-0.2-0.2-0.5-0.2-0.7,0.1c-0.2,0.2-0.2,0.5,0,0.7c0.5,0.5,1,0.9,1.5,1.3c0.1,0.1,0.2,0.1,0.3,0.1s0.3-0.1,0.4-0.2
					C211.8,325.2,211.8,324.9,211.6,324.7z M279.1,324c-0.1-0.1-0.2-0.2-0.3-0.2c-0.1,0-0.3,0-0.4,0.1c-0.5,0.4-1,0.9-1.5,1.3
					c-0.2,0.2-0.2,0.4-0.1,0.6c0,0,0,0.1,0.1,0.1c0.1,0.1,0.2,0.2,0.4,0.2c0.1,0,0.2,0,0.3-0.1c0.5-0.4,1-0.9,1.5-1.3
					C279.3,324.5,279.3,324.2,279.1,324z M214.7,327.3c-0.5-0.4-1-0.8-1.6-1.2c-0.2-0.2-0.5-0.1-0.7,0.1s-0.1,0.5,0.1,0.7
					c0.5,0.4,1.1,0.8,1.6,1.3c0.1,0.1,0.2,0.1,0.3,0.1c0.2,0,0.3-0.1,0.4-0.2C214.9,327.7,214.9,327.4,214.7,327.3z M276,326.6
					L276,326.6c-0.2-0.2-0.5-0.3-0.7-0.1c-0.5,0.4-1.1,0.8-1.6,1.2c-0.2,0.2-0.3,0.5-0.1,0.7c0.1,0.1,0.2,0.2,0.4,0.2h0.1
					c0.1,0,0.2,0,0.3-0.1c0.5-0.4,1.1-0.8,1.6-1.2C276.2,327.1,276.2,326.8,276,326.6z M217.9,329.6c-0.5-0.4-1.1-0.8-1.6-1.2
					c-0.2-0.2-0.5-0.1-0.7,0.1s-0.1,0.5,0.1,0.7c0.5,0.4,1.1,0.8,1.6,1.2c0.1,0.1,0.2,0.1,0.3,0.1c0.2,0,0.3-0.1,0.4-0.2
					C218.2,330.1,218.1,329.8,217.9,329.6z M272.8,329c-0.2-0.2-0.5-0.3-0.7-0.1c-0.5,0.4-1.1,0.8-1.6,1.2c-0.2,0.2-0.3,0.5-0.1,0.7
					c0.1,0.1,0.3,0.2,0.4,0.2s0.2,0,0.3-0.1c0.5-0.4,1.1-0.8,1.7-1.2C272.9,329.6,273,329.2,272.8,329z M221.2,331.9
					c-0.6-0.3-1.1-0.7-1.7-1.1c-0.2-0.2-0.5-0.1-0.7,0.1s-0.1,0.5,0.1,0.7c0.6,0.4,1.1,0.8,1.7,1.1c0.1,0.1,0.2,0.1,0.3,0.1
					c0.2,0,0.3-0.1,0.4-0.2C221.5,332.3,221.5,332,221.2,331.9z M269.5,331.3c-0.2-0.2-0.5-0.3-0.7-0.1c-0.6,0.4-1.1,0.7-1.7,1.1
					c-0.2,0.2-0.3,0.5-0.2,0.7c0.1,0.2,0.3,0.2,0.4,0.2s0.2,0,0.3-0.1c0.6-0.4,1.1-0.7,1.7-1.1C269.6,331.9,269.7,331.6,269.5,331.3
					z M224.7,333.9c-0.6-0.3-1.1-0.7-1.7-1c-0.2-0.1-0.5-0.1-0.7,0.2c-0.2,0.2-0.1,0.5,0.2,0.7c0.6,0.4,1.2,0.7,1.8,1
					c0.1,0.1,0.2,0.1,0.2,0.1c0.2,0,0.4-0.1,0.4-0.3C225,334.4,224.9,334.1,224.7,333.9z M266.1,333.5c-0.1-0.2-0.5-0.3-0.7-0.2
					c-0.6,0.3-1.2,0.7-1.7,1c-0.3,0.1-0.3,0.4-0.2,0.7c0.1,0.2,0.3,0.3,0.4,0.3s0.2,0,0.2-0.1c0.6-0.3,1.2-0.7,1.8-1
					C266.2,334,266.3,333.7,266.1,333.5z M228.2,335.8c-0.6-0.3-1.2-0.6-1.8-0.9c-0.2-0.1-0.6,0-0.7,0.2c-0.1,0.3,0,0.6,0.2,0.7
					c0.6,0.3,1.2,0.6,1.8,0.9c0.1,0,0.2,0.1,0.2,0.1c0.2,0,0.4-0.1,0.5-0.3C228.5,336.2,228.4,335.9,228.2,335.8z M262.6,335.5
					c-0.1-0.3-0.4-0.3-0.7-0.2c-0.6,0.3-1.2,0.6-1.8,0.9c-0.3,0.1-0.4,0.4-0.2,0.7c0.1,0.2,0.3,0.3,0.5,0.3c0.1,0,0.2,0,0.2-0.1
					c0.6-0.3,1.2-0.6,1.8-0.9C262.6,336,262.7,335.7,262.6,335.5z M231.8,337.5c-0.6-0.3-1.2-0.5-1.8-0.8c-0.3-0.1-0.6,0-0.7,0.2
					c-0.1,0.3,0,0.6,0.2,0.7c0.6,0.3,1.2,0.6,1.9,0.8c0.1,0,0.1,0,0.2,0c0.2,0,0.4-0.1,0.5-0.3C232.2,337.9,232.1,337.6,231.8,337.5
					z M259,337.2c-0.1-0.3-0.4-0.4-0.7-0.3c-0.6,0.3-1.2,0.6-1.8,0.8c-0.3,0.1-0.4,0.4-0.3,0.7c0.1,0.2,0.3,0.3,0.5,0.3
					c0.1,0,0.1,0,0.2,0c0.6-0.3,1.2-0.5,1.9-0.8C259,337.8,259.1,337.5,259,337.2z M235.5,339c-0.6-0.2-1.2-0.5-1.9-0.7
					c-0.3-0.1-0.5,0-0.7,0.3c-0.1,0.3,0,0.6,0.3,0.7c0.7,0.3,1.3,0.5,1.9,0.7c0.1,0,0.1,0,0.2,0c0.2,0,0.4-0.1,0.5-0.3
					C235.9,339.4,235.8,339.1,235.5,339z M255.3,338.8c-0.1-0.3-0.4-0.4-0.7-0.3c-0.7,0.3-1.3,0.5-1.9,0.7c-0.3,0.1-0.4,0.4-0.3,0.6
					c0.1,0.2,0.3,0.3,0.5,0.3c0.1,0,0.1,0,0.2,0c0.6-0.2,1.2-0.5,1.9-0.7C255.3,339.4,255.4,339.1,255.3,338.8z M239.3,340.2
					c-0.6-0.2-1.2-0.4-1.9-0.6c-0.3-0.1-0.6,0.1-0.6,0.3c-0.1,0.3,0.1,0.6,0.3,0.6c0.7,0.2,1.3,0.4,2,0.6h0.1c0.2,0,0.4-0.2,0.5-0.4
					C239.8,340.6,239.6,340.3,239.3,340.2z M251.5,340.2c-0.1-0.3-0.4-0.4-0.6-0.3c-0.7,0.2-1.3,0.4-1.9,0.6
					c-0.3,0.1-0.4,0.4-0.4,0.6c0.1,0.2,0.3,0.4,0.5,0.4h0.1c0.6-0.2,1.3-0.4,2-0.6C251.4,340.7,251.6,340.5,251.5,340.2z
					 M243.2,341.2c-0.5-0.1-1.2-0.2-2-0.4c-0.3-0.1-0.5,0.1-0.6,0.4s0.1,0.5,0.4,0.6c0.8,0.2,1.5,0.3,2,0.4h0.1
					c0.2,0,0.4-0.2,0.5-0.4C243.7,341.5,243.5,341.3,243.2,341.2z M247.6,341.3c-0.1-0.3-0.3-0.4-0.6-0.4c-0.9,0.2-1.5,0.3-2,0.4
					c-0.3,0-0.5,0.3-0.4,0.6c0,0.3,0.3,0.4,0.5,0.4h0.1c0.5-0.1,1.1-0.2,2-0.4C247.5,341.9,247.7,341.6,247.6,341.3z"/>
			</g>
		</g>
	</g>
</g>
</svg>
