<?xml version="1.0" encoding="utf-8"?>
<!-- Generator: Adobe Illustrator 23.0.6, SVG Export Plug-In . SVG Version: 6.00 Build 0)  -->
<svg version="1.1" id="Layer_1" xmlns="http://www.w3.org/2000/svg" xmlns:xlink="http://www.w3.org/1999/xlink" x="0px" y="0px"
	 viewBox="0 0 496 496" style="enable-background:new 0 0 496 496;" xml:space="preserve">
<style type="text/css">
	.st0{opacity:0.95;}
	.st1{fill:#00AEEF;}
	.st2{fill:#0B436B;}
</style>
<g class="st0">
	<g>
		<polygon class="st1" points="392.8,48.3 392.8,280.4 211.8,280.4 224,314 230.3,314 242.7,345 274,336 280.8,314 392.8,314 
			450.8,314 450.8,280.4 450.8,48.3 		"/>
		<polygon class="st1" points="100,48.3 50.9,48.3 50.9,310.6 85.2,310.6 100,310.6 152,310.6 152,280.4 100,280.4 		"/>
	</g>
	<path class="st2" d="M320,480v-57.2c0-3.4,0.7-6.7,2.1-9.7l26.5-59.6c2.3-5.1,3.4-10.6,3.4-16.3V320h104V40h-56V0h-88
		c-27.8,0-52,15.9-64,39c-12-23.2-36.2-39-64-39H96v40H40v280h104v15.7c0,6.8,1.7,13.5,5,19.4l32,57.5c2,3.5,3,7.6,3,11.6V480H0v16
		h496v-16H320z M440,56v248H272v8c0,13.2-10.8,24-24,24c-1,0-2-0.2-3-0.4c-4.2-17.8-13-34.1-25.9-47.6H400V56H440z M112,16h72
		c30.9,0,56,25.1,56,56v64h16V72c0-30.9,25.1-56,56-56h72v256H256V152h-16v120h-32v-40c0-26.5-21.5-48-48-48c-8.8,0-16,7.2-16,16v72
		h-32V16z M56,304V56h40v232h48v16H56z M163,347.4c-2-3.6-3-7.6-3-11.7V200c17.6,0,32,14.4,32,32v51.3l14.1,14.1
		c16.7,16.7,25.9,39,25.9,62.6h16c0-2.7-0.2-5.4-0.4-8c0.1,0,0.3,0,0.4,0c19.3,0,35.5-13.8,39.2-32H336v17.2c0,3.4-0.7,6.7-2.1,9.7
		l-26.5,59.6c-1.4,3-2.2,6.2-2.7,9.5H199.1c-0.8-3.9-2.2-7.6-4.1-11.1L163,347.4z M200,464h72v-16h-72v-16h104v16h-16v16h16v16H200
		V464z"/>
	<path class="st1" d="M312,208h16v16h-16V208z"/>
	<path class="st1" d="M344,208h16v16h-16V208z"/>
	<path class="st1" d="M280,208h16v16h-16V208z"/>
	<path class="st1" d="M272,240h96v16h-96V240z"/>
	<path class="st1" d="M272,176h96v16h-96V176z"/>
	<path class="st1" d="M272,120h96v16h-96V120z"/>
	<path class="st1" d="M272,88h96v16h-96V88z"/>
	<path class="st1" d="M272,56h96v16h-96V56z"/>
	<path class="st1" d="M168,88h16v16h-16V88z"/>
	<path class="st1" d="M200,88h16v16h-16V88z"/>
	<path class="st1" d="M136,88h16v16h-16V88z"/>
	<path class="st1" d="M128,56h96v16h-96V56z"/>
	<path class="st1" d="M128,120h96v16h-96V120z"/>
	<path class="st1" d="M128,152h96v16h-96V152z"/>
</g>
</svg>
