<?xml version="1.0" encoding="utf-8"?>
<!-- Generator: Adobe Illustrator 23.0.6, SVG Export Plug-In . SVG Version: 6.00 Build 0)  -->
<svg version="1.1" id="Capa_1" xmlns="http://www.w3.org/2000/svg" xmlns:xlink="http://www.w3.org/1999/xlink" x="0px" y="0px"
	 viewBox="0 0 411 411" style="enable-background:new 0 0 411 411;" xml:space="preserve">
<style type="text/css">
	.st0{opacity:0.95;}
	.st1{fill:#00AEEF;}
	.st2{fill:#00426B;}
</style>
<g class="st0">
	<g>
		<path class="st1" d="M400.1,361.2h-48.1c-2.4,0-4.3-1.9-4.3-4.3V98.1H405v258.2C405,359,402.8,361.2,400.1,361.2z"/>
		<g>
			<g>
				<path class="st2" d="M405,90C405,90,405,90,405,90l-54.9,0V50c0-3.3-2.7-6-6-6H36.4C16.3,44,0,60.3,0,80.4v250.2
					C0,350.7,16.3,367,36.4,367h338.2c20.1,0,36.4-16.3,36.4-36.4V96C411,92.7,408.4,90,405,90z M36.4,355.1
					c-13.5,0-24.4-10.9-24.4-24.4V80.6c0-13.5,10.9-24.4,24.4-24.4h301.8v274.4c0,9,3.4,17.7,9.4,24.4L36.4,355.1z M398.6,330.6
					c0,13.3-10.7,24.2-24,24.5c-13.3,0.2-24.2-10.3-24.4-23.6c0-0.3,0-0.5,0-0.8V102.1h48.4V330.6z"/>
			</g>
		</g>
		<g>
			<g>
				<path class="st1" d="M93.3,80.7c-2.4,0-4.3,2-4.3,4.3v33L62.6,82.2c-1.4-1.9-4.1-2.3-6.1-1c-1.2,0.9-1.8,2.2-1.8,3.7v46.7
					c-0.1,2.4,1.9,4.4,4.3,4.5c0.1,0,0.3,0,0.4,0c2.4-0.1,4.3-2,4.3-4.4V98.4l25.8,35.7l0.4,0.5c0.8,1,2,1.6,3.3,1.6
					c2.4,0,4.4-2,4.4-4.4V85C97.6,82.7,95.7,80.8,93.3,80.7z"/>
			</g>
		</g>
		<g>
			<g>
				<path class="st1" d="M142.6,127.3h-22v-14.9h18.7c2.5-0.3,4.2-2.6,3.8-5c-0.3-2-1.8-3.6-3.8-3.8h-18.7V88.8h22
					c2.4-0.1,4.4-2.1,4.4-4.5c0-2.4-2-4.4-4.4-4.4h-26.5c-2.4,0-4.4,2-4.4,4.4v47.4c0,2.4,1.9,4.4,4.3,4.5c0,0,0.1,0,0.1,0h26.5
					c2.5-0.3,4.2-2.6,3.8-5C146.2,129.1,144.6,127.5,142.6,127.3z"/>
			</g>
		</g>
		<g>
			<g>
				<path class="st1" d="M227.4,80.9c-2.3-0.9-4.9,0.1-5.8,2.3l-16,37.2l-10.3-24.6c-0.7-1.6-2.4-2.7-4.2-2.7c-1.8,0-3.5,1-4.2,2.7
					l-10.3,24.6l-16-37.2c-1.3-2.1-4-2.7-6.1-1.4c-1.6,1-2.4,2.9-1.9,4.7l23.8,46.8c0.1,0.2,0.3,0.5,0.4,0.7v0.5c0,0,0,0,0.6,0
					c0.2,0.2,0.4,0.4,0.7,0.5h0.6h2c0.2-0.1,0.4-0.1,0.6,0l0.6-0.5h0.5l0.5-0.5v-0.7l10.5-24.9l10.6,24.9c0,0.2,0,0.5,0,0.7v0.5h0.6
					c0.2,0.2,0.4,0.4,0.7,0.5h0.6h1.9h0.6c0,0,0.5,0,0.7-0.5h0.6v-0.5c0.2-0.2,0.3-0.5,0.4-0.7l19.7-46.8
					C230.6,84.4,229.6,81.8,227.4,80.9z"/>
			</g>
		</g>
		<g>
			<g>
				<path class="st1" d="M285.4,112.2c-2-2.9-4.8-5.2-8-6.6c-3.5-1.6-7.3-2.8-11.1-3.5c-3.5-0.5-6.9-1.7-10-3.5
					c-0.8-0.6-1.6-1.3-2.2-2.1c-0.4-0.7-0.6-1.5-0.6-2.2c0.1-2.1,1.3-4,3-5c2.6-1.8,5.8-2.8,9-2.7c4.8-0.1,9.5,1.8,13,5.1
					c1.8,1.3,4.2,0.9,5.5-0.9c0.1-0.1,0.1-0.2,0.2-0.3c1.2-1.9,0.7-4.4-1.1-5.7c-4.9-4.1-11.1-6.4-17.5-6.4c-5-0.1-9.8,1.4-13.9,4.2
					c-3.9,2.7-6.2,7-6.4,11.8c0,2.3,0.6,4.6,1.8,6.6c1.8,2.7,4.4,4.9,7.4,6.2c3.3,1.5,6.8,2.5,10.4,3.1c3.9,0.6,7.6,1.8,11,3.8
					c1,0.6,1.8,1.4,2.4,2.4c0.5,0.8,0.7,1.7,0.7,2.6c-0.1,2.4-1.4,4.5-3.4,5.8c-2.9,2-6.4,3-10,3c-5.7-0.3-11-2.5-15.4-6.2
					c-1.8-1.5-4.4-1.2-5.8,0.6c-1.4,1.8-1.1,4.4,0.6,5.8c5.8,4.9,12.9,7.7,20.5,8.2c5.3,0.1,10.5-1.5,14.9-4.6
					c4.2-2.8,6.7-7.5,6.9-12.5C287.4,116.6,286.7,114.3,285.4,112.2z"/>
			</g>
		</g>
		<g>
			<g>
				<path class="st2" d="M291.4,155.4H49.5c-3.3,0-6,2.7-6,6s2.7,6,6,6h241.8c3.3,0,6-2.7,6-6S294.7,155.4,291.4,155.4z"/>
			</g>
		</g>
		<g>
			<g>
				<path class="st2" d="M264.6,204.1H49.5c-3.3,0-6,2.7-6,6s2.7,6,6,6h215.1c3.3,0,6-2.7,6-6S268,204.1,264.6,204.1z"/>
			</g>
		</g>
		<g>
			<g>
				<path class="st2" d="M264.6,235.1H49.5c-3.3,0-6,2.7-6,6s2.7,6,6,6h215.1c3.3,0,6-2.7,6-6S268,235.1,264.6,235.1z"/>
			</g>
		</g>
		<g>
			<g>
				<path class="st2" d="M264.6,266.1H49.5c-3.3,0-6,2.7-6,6s2.7,6,6,6h215.1c3.3,0,6-2.7,6-6S268,266.1,264.6,266.1z"/>
			</g>
		</g>
		<g>
			<g>
				<path class="st2" d="M264.6,297.1H49.5c-3.3,0-6,2.7-6,6s2.7,6,6,6h215.1c3.3,0,6-2.7,6-6S268,297.1,264.6,297.1z"/>
			</g>
		</g>
	</g>
</g>
</svg>
