<?xml version="1.0" encoding="utf-8"?>
<!-- Generator: Adobe Illustrator 23.0.6, SVG Export Plug-In . SVG Version: 6.00 Build 0)  -->
<svg version="1.1" id="Layer_1" xmlns="http://www.w3.org/2000/svg" xmlns:xlink="http://www.w3.org/1999/xlink" x="0px" y="0px"
	 viewBox="0 0 489 489" style="enable-background:new 0 0 489 489;" xml:space="preserve">
<style type="text/css">
	.st0{opacity:0.95;}
	.st1{fill:#00AEEF;}
	.st2{fill:#0B436B;}
</style>
<g class="st0">
	<path class="st1" d="M471,240.8v64.4c0,4.2-3.1,7.6-7.2,8l-42,4.1c-4.5,17.9-11.7,34.9-21.3,50.6l26.8,32.4c2.8,3.3,2.4,8.2-0.9,11
		l-34.4,30.5c-1.7,1.5-3.9,2.2-6.2,2c-2.3-0.2-4.2-1.5-5.5-3.3l-51.3-71.1c-2.3-3.2-2-7.6,0.8-10.4c47.6-47.5,47.6-124.6,0-172.1
		c-47.6-47.6-124.6-47.6-172.2,0c-47.5,47.5-47.5,124.6,0,172.1c2.8,2.8,3.1,7.1,0.9,10.2l-49.5,71.1c-1.3,1.8-3.4,3.1-5.6,3.4
		c-2.3,0.3-4.5-0.4-6.3-2l-34.4-30.5c-3.2-2.8-3.6-7.7-0.9-11l26.8-32.4c-9.6-15.7-16.8-32.8-21.3-50.6l-42-4.1
		c-4.1-0.4-7.2-3.8-7.1-8v-64.4c-0.1-4.1,3.1-7.5,7.1-8l42-4c4.4-17.9,11.6-35,21.3-50.7l-26.8-32.3c-2.6-3.2-2.4-7.8,0.5-10.7
		l45.5-45.5c2.9-2.9,7.6-3.1,10.7-0.5l32.4,26.8c15.7-9.6,32.8-16.8,50.6-21.4l4.1-42c0.4-4.1,3.8-7.2,7.9-7.2h62.2
		c4.1,0,7.5,3.1,8,7.2l4,42c17.9,4.6,34.9,11.7,50.7,21.4l32.3-26.8c3.2-2.6,7.8-2.4,10.7,0.5l45.5,45.5c2.9,2.9,3.1,7.5,0.5,10.7
		l-26.8,32.3c9.7,15.7,16.9,32.8,21.3,50.7l42,4C467.9,233.2,471,236.7,471,240.8z"/>
	<path class="st2" d="M463.8,232.8l-42-4c-4.5-17.9-11.7-35-21.3-50.7l26.8-32.3c2.6-3.2,2.4-7.8-0.5-10.7l-45.5-45.5
		c-2.9-2.9-7.6-3.1-10.7-0.5l-32.4,26.8c-15.7-9.6-32.8-16.8-50.7-21.3l-4.1-42.1c-0.4-4.1-3.8-7.2-7.9-7.2h-62.1
		c-4.1,0-7.6,3.1-7.9,7.2l-4.1,42.1c-17.9,4.5-34.9,11.7-50.7,21.3L118.4,89c-3.2-2.6-7.8-2.4-10.7,0.5L62.2,135
		c-2.9,2.9-3.1,7.6-0.5,10.7l26.8,32.3c-9.7,15.7-16.9,32.8-21.4,50.7l-42,4.1c-4.1,0.4-7.2,3.8-7.2,7.9v64.4c0,4.1,3.1,7.5,7.2,7.9
		l42,4.1c4.5,17.9,11.7,34.9,21.3,50.7l-26.8,32.4c-2.7,3.3-2.4,8.2,0.9,11.1l34.5,30.5c1.7,1.5,4,2.2,6.2,1.9
		c2.3-0.3,4.3-1.5,5.6-3.4l49.5-71.1c2.2-3.2,1.8-7.5-0.9-10.2c-47.5-47.5-47.5-124.6,0-172.2s124.6-47.5,172.2,0
		s47.5,124.6,0,172.2c-2.8,2.8-3.1,7.1-0.8,10.3l51.3,71.1c1.3,1.8,3.3,3,5.6,3.3c2.2,0.2,4.5-0.5,6.2-2l34.5-30.5
		c3.2-2.9,3.6-7.8,0.9-11.1l-26.8-32.4c9.6-15.7,16.8-32.8,21.3-50.7l42-4.1c4.1-0.4,7.2-3.8,7.2-7.9v-64.4
		C471,236.7,467.9,233.2,463.8,232.8z M455,297.9l-40.5,3.9c-3.4,0.3-6.3,2.8-7,6.2c-4.4,20-12.4,39-23.6,56
		c-1.9,2.9-1.7,6.8,0.5,9.5l25.6,30.9L387.9,424l-42.3-58.6c48.9-54,47.4-137.7-4.7-189.8c-53.7-53.7-141-53.7-194.7,0
		c-52.1,52.1-53.6,135.9-4.6,189.9l-40.7,58.4l-22-19.4l25.6-30.9c2.2-2.7,2.4-6.5,0.5-9.5c-11.2-17.1-19.2-36.1-23.6-56
		c-0.7-3.4-3.5-5.9-7-6.2l-40.5-3.9V248l40.5-3.9c3.5-0.3,6.3-2.9,7-6.3c4.3-20,12.3-38.9,23.6-56c1.9-2.9,1.7-6.8-0.5-9.5
		l-25.9-31.2l35.2-35.2l31.2,25.9c2.7,2.2,6.5,2.5,9.5,0.5c17.1-11.2,36.1-19.2,56-23.6c3.4-0.7,5.9-3.6,6.2-7l3.9-40.5h47.6
		l3.9,40.5c0.3,3.4,2.8,6.3,6.2,7c20,4.4,39,12.4,56,23.6c2.9,1.9,6.8,1.7,9.5-0.5l31.2-25.9l35.2,35.2l-25.9,31.2
		c-2.2,2.7-2.4,6.6-0.5,9.5c11.3,17,19.3,36,23.6,56c0.7,3.4,3.5,5.9,7,6.3L455,248V297.9z"/>
	<path class="st2" d="M463.8,232.8l-42-4c-4.4-17.9-11.6-35-21.3-50.7l26.8-32.3c2.6-3.2,2.4-7.8-0.5-10.7l-45.5-45.5
		c-2.9-2.9-7.5-3.1-10.7-0.5l-32.3,26.8c-15.8-9.6-32.8-16.8-50.7-21.4l-4-42c-0.4-4.1-3.9-7.2-8-7.2h-62.2c-4.1,0-7.5,3.1-7.9,7.2
		l-4.1,42c-17.9,4.6-34.9,11.7-50.6,21.4l-32.4-26.8c-3.1-2.6-7.8-2.4-10.7,0.5L62.2,135c-2.9,2.9-3.1,7.5-0.5,10.7l26.8,32.3
		c-9.7,15.7-16.9,32.8-21.3,50.7l-42,4c-4.1,0.4-7.2,3.9-7.1,8v64.4c-0.1,4.2,3.1,7.6,7.1,8l42,4.1c4.5,17.9,11.7,34.9,21.3,50.6
		l-26.8,32.4c-2.8,3.3-2.3,8.2,0.9,11L97,441.8c1.8,1.5,4,2.3,6.3,2c2.3-0.3,4.3-1.5,5.6-3.4l49.5-71.1c2.2-3.1,1.8-7.4-0.9-10.2
		c-47.5-47.5-47.5-124.6,0-172.1c47.6-47.6,124.6-47.6,172.2,0c47.6,47.5,47.6,124.6,0,172.1c-2.8,2.8-3.1,7.1-0.8,10.4l51.3,71.1
		c1.3,1.8,3.3,3.1,5.5,3.3c2.3,0.2,4.5-0.4,6.2-2l34.4-30.5c3.3-2.8,3.6-7.7,0.9-11l-26.8-32.4c9.6-15.7,16.8-32.8,21.3-50.6l42-4.1
		c4.1-0.4,7.2-3.8,7.2-8v-64.4C471,236.7,467.9,233.2,463.8,232.8z M455,298l-40.5,3.9c-3.4,0.4-6.3,2.8-7,6.3
		c-4.4,19.9-12.4,39-23.6,56c-1.9,2.9-1.7,6.8,0.6,9.5l25.5,30.9L387.9,424l-42.2-58.6c49-53.9,47.4-137.7-4.7-189.8
		c-53.7-53.7-141.1-53.7-194.7,0c-52.1,52.1-53.7,135.9-4.7,189.9l-40.7,58.4l-22-19.4l25.6-30.9c2.2-2.7,2.4-6.6,0.5-9.5
		c-11.2-17.1-19.3-36.1-23.6-56c-0.7-3.4-3.6-5.9-7-6.3L33.9,298V248l40.5-3.9c3.5-0.4,6.3-2.8,7-6.3c4.3-20,12.3-39,23.6-56
		c1.9-2.9,1.7-6.8-0.5-9.5l-25.9-31.2l35.2-35.2l31.2,25.8c2.7,2.3,6.6,2.5,9.5,0.5c17.1-11.2,36-19.2,56-23.6
		c3.4-0.8,5.9-3.6,6.2-7.1l3.9-40.5h47.6l3.9,40.5c0.4,3.4,2.8,6.3,6.2,7.1c20,4.4,39,12.4,56,23.6c3,2,6.8,1.8,9.5-0.5l31.2-25.8
		l35.2,35.2l-25.8,31.2c-2.3,2.7-2.5,6.6-0.5,9.5c11.3,17,19.3,36,23.6,56c0.7,3.4,3.6,5.9,7,6.3L455,248V298z"/>
	<rect x="210.1" y="372.4" class="st2" width="67.9" height="21.6"/>
	<rect x="210.1" y="400.4" class="st2" width="67.9" height="21.6"/>
	<g>
		<g>
			<path class="st1" d="M287.6,357.4c35.6-14.5,58.7-49.3,58.2-87.8c0-52.9-45.7-95.9-101.8-95.9s-101.8,43-101.8,95.9
				c-0.6,38.5,22.5,73.3,58.2,87.8l0.8,0.4l5.4,8.8c-9.6,5.6-12.9,17.9-7.3,27.5c0.7,1.3,1.6,2.4,2.6,3.5c-7.5,8.3-7,21.1,1.3,28.6
				c3.8,3.4,8.7,5.3,13.8,5.3h54.3c11.2,0,20.3-9,20.4-20.2c0-5.1-1.9-10-5.3-13.8c7.5-8.2,7-20.9-1.2-28.4c-1.1-1-2.3-1.9-3.5-2.6
				l5.4-8.8L287.6,357.4z M271.1,418h-54.3c-3.7,0-6.8-3-6.8-6.8s3-6.8,6.8-6.8h54.3c3.7,0,6.8,3,6.8,6.8S274.9,418,271.1,418z
				 M271.1,390.9h-54.3c-3.7,0-6.8-3-6.8-6.8c0-3.7,3-6.8,6.8-6.8h54.3c3.7,0,6.8,3,6.8,6.8C277.9,387.8,274.9,390.9,271.1,390.9z
				 M281.5,345.2l-2.7,1.5c-1.1,0.6-1.9,1.4-2.6,2.4l-8.9,14.6h-3v-51.5l31.9-31.9l-9.6-9.6l-33.9,33.9c-1.3,1.3-2,3-2,4.8v54.3
				h-13.6v-54.3c0-1.8-0.7-3.5-2-4.8l-33.9-33.9l-9.6,9.6l31.9,31.9v51.5h-3l-8.9-14.6c-0.6-1-1.5-1.9-2.6-2.4l-2.7-1.5
				c-0.2-0.1-0.4-0.2-0.7-0.3c-30.7-12.3-50.6-42.3-50.1-75.4c0-45.4,39.6-82.3,88.2-82.3s88.2,36.9,88.2,82.3
				c0.5,33.1-19.4,63-50.1,75.4C281.9,345,281.7,345.1,281.5,345.2z"/>
		</g>
	</g>
</g>
</svg>
