<?xml version="1.0" encoding="utf-8"?>
<!-- Generator: Adobe Illustrator 23.0.6, SVG Export Plug-In . SVG Version: 6.00 Build 0)  -->
<svg version="1.1" id="Layer_1" xmlns="http://www.w3.org/2000/svg" xmlns:xlink="http://www.w3.org/1999/xlink" x="0px" y="0px"
	 viewBox="0 0 512 512" style="enable-background:new 0 0 512 512;" xml:space="preserve">
<style type="text/css">
	.st0{fill:#00AEEF;}
	.st1{opacity:0.95;}
	.st2{fill:#0B436B;}
</style>
<g>
	<g>
		<polygon class="st0" points="59.5,260 35.7,282.3 25,256 34,221.3 64.2,203.5 78.5,197.2 102.2,205.6 120.3,211.2 132.2,236.5 
			136,256 129.8,268 116.1,265.2 97.2,251.8 75.2,242.6 63,245.6 		"/>
		<g>
			<g>
				<path class="st0" d="M451.8,237.3c-17.4-8.7-50-8.8-51.4-8.8c-4.1,0-7.5,3.4-7.5,7.5s3.4,7.5,7.5,7.5c8.4,0,32.8,1.3,44.7,7.2
					c1.1,0.5,2.2,0.8,3.3,0.8c2.7,0,5.4-1.5,6.7-4.1C457,243.6,455.5,239.1,451.8,237.3z"/>
			</g>
		</g>
		<g>
			<g>
				<path class="st0" d="M317.9,158.7c-28.3-28.3-87.5-22.9-111.7-19.3c-7.6,1.1-13.1,7.6-13.1,15.3V172c0,4.1,3.4,7.5,7.5,7.5
					s7.5-3.4,7.5-7.5v-17.2c0-0.3,0.2-0.5,0.4-0.5c9.6-1.5,28.8-3.7,48.6-2.4c23.3,1.6,40.2,7.4,50.3,17.4c2.9,2.9,7.7,2.9,10.6,0
					C320.8,166.3,320.8,161.6,317.9,158.7z"/>
			</g>
		</g>
		<g>
			<g>
				<path class="st0" d="M92.8,241c-15-4.8-27.9-4.5-28.5-4.5c-1.9,0.1-3.8,0.9-5.2,2.3l-13.5,14c-2.8,3-2.8,7.7,0.2,10.6
					c3,2.9,7.7,2.8,10.6-0.2l7.8-8.1l3.4-3.5c9.7,0.5,40.8,4.1,52.9,30.8l9.2-14.3C121.6,255.5,109,246.2,92.8,241z"/>
			</g>
		</g>
		<path class="st0" d="M208.1,172c0,0-7.2,23.4-25.9,25.3s-8.5-29.7-8.5-29.7l-0.9-35.2l13.4-36l24.9-16.9l43.6-2.7h85.9l8.5,46.3
			l-3.6,43.6l-2.2,10.7l-6.1,8.9l-2.8,4.9l-5.2-0.5c0,0-17.7-20.6-27.2-25.9c-9.5-5.3-29.9-17.6-29.9-17.6l-52.5-1.3l-15.6,4
			L208.1,172z"/>
		<path class="st0" d="M400.5,243.5c0,0-21.2-0.5-21.2,12.5c0,13-15.1-19-15.1-19l11.8-28l24.5-11.6l38-2.2h43.2v35.2l-4.9,21.2
			l-7.1,8.5l-0.9,5.9l-20.3-14.4L426.9,240L400.5,243.5z"/>
		<polygon class="st0" points="28.9,289.3 43.5,307.9 55.6,319.8 52.7,341.2 28.9,331 19.4,317 22.4,302.6 		"/>
		<polygon class="st0" points="132.2,289.3 112,314 106.1,323.3 109,338.5 132.2,328.9 143.4,315.2 		"/>
		<polygon class="st0" points="210.5,310.1 249.6,338.5 223.5,367.2 196.8,331 196.8,321 		"/>
		<polygon class="st0" points="268.3,332.8 260,344.7 289.7,367.2 311.1,338.7 320.1,323.3 301.9,310.1 		"/>
	</g>
	<g class="st1">
		<g>
			<g>
				<path class="st2" d="M489.2,343.9l-30.9-8.8c-1.3-0.4-2.3-1.6-2.3-3v-10.3c2.5-1.7,4.9-3.7,7.2-5.9C474,305.3,480,291.1,480,276
					v-14.2l3-6c3.3-6.6,5-13.9,5-21.2V196c0-4.1-3.4-7.5-7.5-7.5h-72c-26.2,0-47.5,21.3-47.5,47.5v0.4c0,6.1,1.4,12.2,4.2,17.7
					l3.8,7.7V274c0,19.4,9.5,36.8,24,47.2l0,10.8c0,1.7,0,2.4-6.2,4.1l-15.1,4.3l-43.6-15.9c0.2-2.1-0.5-4.2-2-5.7l-13.9-14.6v-24.6
					c1.5-1.2,2.9-2.5,4.3-3.8c17.6-16.5,27.7-39.8,27.7-63.9v-19.6c5.3-11.6,8-23.8,8-36.4v-80c0-4.1-3.4-7.5-7.5-7.5h-112
					c-39.4,0-71.5,32.1-71.5,71.5v16c0,12.6,2.7,24.8,8,36.4v16.9c0,28,12.4,53.2,32,69.8v25.2l-13.9,14.6c-1.5,1.6-2.2,3.7-2,5.7
					L139,341.3c-3.3,1.2-6.4,2.9-9.3,4.8l-7.2-3.6c21.5-9.4,28.3-22.5,28.7-23.2c1.1-2.1,1.1-4.6,0-6.7c-5.4-10.8-6.1-30.6-6.6-46.5
					c-0.2-5.3-0.3-10.3-0.7-14.7c-2.6-35.9-29.8-63-63.5-63s-60.9,27.1-63.5,63c-0.3,4.5-0.5,9.5-0.7,14.7
					c-0.5,15.9-1.2,35.7-6.6,46.5c-1.1,2.1-1.1,4.6,0,6.7c0.3,0.7,7.1,13.8,28.7,23.2l-20.1,10C7.7,358,1,368.8,1,380.8v55.3
					c0,4.1,3.4,7.5,7.5,7.5s7.5-3.4,7.5-7.5v-55.3c0-6.3,3.5-12,9.1-14.8l25-12.5l8.7,8.3c6.1,5.8,13.9,8.7,21.7,8.7
					c7.8,0,15.6-2.9,21.7-8.7l8.7-8.3l8.2,4.1c-3.8,6.1-6,13.4-6,20.9v57.6c0,4.1,3.4,7.5,7.5,7.5c4.1,0,7.5-3.4,7.5-7.5v-57.6
					c0-10.3,6.5-19.5,16.1-23.1l48.6-17.7l20.2,30.3c2.6,3.9,6.7,6.4,11.4,6.8c0.5,0.1,1,0.1,1.5,0.1c4.1,0,8-1.6,10.9-4.5
					l12.3-12.3v78c0,4.1,3.4,7.5,7.5,7.5s7.5-3.4,7.5-7.5v-78l12.3,12.3c2.9,2.9,6.8,4.5,10.9,4.5c0.5,0,1,0,1.5-0.1
					c4.6-0.5,8.8-2.9,11.4-6.8l20.2-30.3l48.6,17.7c9.7,3.5,16.1,12.8,16.1,23.1v57.6c0,4.1,3.4,7.5,7.5,7.5s7.5-3.4,7.5-7.5v-57.6
					c0-10.4-4.1-20.2-11.1-27.4l1.8-0.5c1.9-0.5,4.4-1.3,7-2.5l19.1,19.1v68.9c0,4.1,3.4,7.5,7.5,7.5s7.5-3.4,7.5-7.5v-68.9l19-19
					c1,0.5,2.1,0.9,3.2,1.3l30.9,8.8c7.1,2,12,8.6,12,15.9v61.9c0,4.1,3.4,7.5,7.5,7.5s7.5-3.4,7.5-7.5v-61.9
					C512,360.2,502.6,347.7,489.2,343.9z M49,330.6c-14-5-21-11.8-24-15.4c2-5.3,3.4-11.5,4.3-17.9c4.1,9.9,11,18.3,19.8,24.4V330.6
					z M91.9,350.9c-6.4,6.1-16.4,6.1-22.8,0l-7-6.6c1.2-2.2,1.8-4.7,1.8-7.3v-8c5.2,1.6,10.8,2.5,16.5,2.5c5.7,0,11.3-0.9,16.5-2.5
					l0,8c0,2.6,0.6,5.1,1.8,7.3L91.9,350.9z M80.5,316.5C58.2,316.5,40,298.4,40,276c0-4.1-3.4-7.5-7.5-7.5c-0.4,0-0.8,0-1.2,0.1
					c0-0.6,0-1.3,0.1-1.9c0.2-5.1,0.3-10,0.6-14.2c1-13.4,6.3-25.8,15.1-34.9c8.9-9.1,20.8-14.2,33.4-14.2s24.5,5,33.4,14.2
					c8.8,9.1,14.2,21.5,15.1,34.9c0.3,4.2,0.5,9,0.6,14.2c0,0.4,0,0.9,0,1.3c-8.1-12.5-20.7-21.8-37-27c-15-4.8-27.9-4.5-28.5-4.5
					c-2,0.1-3.8,0.9-5.2,2.3l-13.5,14c-2.9,3-2.8,7.7,0.2,10.6c3,2.9,7.7,2.8,10.6-0.2l11.2-11.7c9.7,0.5,40.8,4.1,52.9,30.8
					C117.5,302,100.6,316.5,80.5,316.5z M112,330.7l0-8.9c8.7-6,15.6-14.4,19.8-24.4c0.9,6.4,2.2,12.6,4.3,17.9
					C133.1,318.9,126,325.6,112,330.7z M184,209.2v-18.6c0-1.1-0.3-2.2-0.7-3.3c-4.8-10-7.3-20.6-7.3-31.5v-16
					c0-31.2,25.4-56.5,56.5-56.5h104.6V156c0,10.9-2.4,21.5-7.3,31.5c-0.5,1-0.7,2.1-0.7,3.3V212c0,20.3-8.1,39.1-22.9,52.9
					c-1.8,1.7-3.8,3.4-5.7,4.9c0,0-0.1,0.1-0.1,0.1c-13.9,10.5-30.8,15.6-48.6,14.5C213.8,281.9,184,248.9,184,209.2z M226.2,359.9
					c-0.1,0.1-0.2,0.2-0.4,0.1c-0.2,0-0.3-0.2-0.4-0.2l-23.3-34.9l7.5-7.9l35.3,24.1L226.2,359.9z M256.6,331l-40.5-27.7v-14
					c10.5,5.7,22.2,9.2,34.7,10c2,0.1,3.9,0.2,5.9,0.2c14.3,0,28.1-3.4,40.5-9.9v13.7L256.6,331z M287.8,359.8
					c0,0.1-0.1,0.2-0.4,0.2c-0.2,0-0.4-0.1-0.4-0.1l-18.7-18.7l35.3-24.1l7.5,7.9L287.8,359.8z M424.5,353.5l-17-17
					c0.3-1.3,0.5-2.8,0.5-4.4l0-3.2c4.7,1.5,9.7,2.5,14.8,2.6c0.6,0,1.1,0,1.7,0c5.7,0,11.2-0.9,16.5-2.5v3c0,1.5,0.2,3,0.5,4.4
					L424.5,353.5z M452.7,305.1c-7.9,7.7-18.4,11.8-29.5,11.4c-21.7-0.6-39.3-19.7-39.3-42.5v-14c0-1.2-0.3-2.3-0.8-3.3l-4.6-9.2
					c-1.7-3.4-2.6-7.2-2.6-11V236c0-17.9,14.6-32.5,32.5-32.5H473v31.1c0,5-1.2,10.1-3.4,14.5l-3.8,7.6c-0.5,1-0.8,2.2-0.8,3.3v16
					C465,287.1,460.6,297.4,452.7,305.1z"/>
			</g>
		</g>
		<g>
			<g>
				<path class="st2" d="M472.5,380.6c-4.1,0-7.5,3.4-7.5,7.5v48c0,4.1,3.4,7.5,7.5,7.5s7.5-3.4,7.5-7.5v-48
					C480,383.9,476.6,380.6,472.5,380.6z"/>
			</g>
		</g>
		<g>
			<g>
				<path class="st2" d="M40.5,390.5c-4.1,0-7.5,3.4-7.5,7.5v38.1c0,4.1,3.4,7.5,7.5,7.5s7.5-3.4,7.5-7.5V398
					C48,393.8,44.6,390.5,40.5,390.5z"/>
			</g>
		</g>
		<g>
			<g>
				<path class="st2" d="M168.6,396.6c-4.1,0-7.5,3.4-7.5,7.5v32c0,4.1,3.4,7.5,7.5,7.5s7.5-3.4,7.5-7.5v-32
					C176,399.9,172.7,396.6,168.6,396.6z"/>
			</g>
		</g>
		<g>
			<g>
				<path class="st2" d="M344.6,396.6c-4.1,0-7.5,3.4-7.5,7.5v32c0,4.1,3.4,7.5,7.5,7.5c4.1,0,7.5-3.4,7.5-7.5v-32
					C352.1,399.9,348.8,396.6,344.6,396.6z"/>
			</g>
		</g>
	</g>
</g>
</svg>
